<svg width="40" height="41" viewBox="0 0 40 41" fill="none" xmlns="http://www.w3.org/2000/svg">
<g filter="url(#filter0_i_1290_21504)">
<g clip-path="url(#clip0_1290_21504)">
<path d="M12.8922 22.8162L12.8922 22.8162L20.8779 30.8018C21.0725 30.997 21.3038 31.1518 21.5584 31.2573C21.8129 31.3628 22.0857 31.4169 22.3612 31.4167M12.8922 22.8162L23.844 30.8023C23.6494 30.9972 23.4183 31.1518 23.1639 31.2573L22.9725 30.7954L23.1639 31.2573C22.9094 31.3627 22.6367 31.4169 22.3612 31.4167M12.8922 22.8162C12.0725 21.9964 12.0725 20.6704 12.8922 19.8507L20.8784 11.8645C21.6981 11.0448 23.0242 11.0448 23.8439 11.8645C24.6637 12.6843 24.6637 14.0103 23.8439 14.8301L17.3406 21.3334L23.844 27.8367C24.6637 28.6564 24.6637 29.9823 23.8442 30.8021L12.8922 22.8162ZM22.3612 31.4167C22.361 31.4167 22.3609 31.4167 22.3607 31.4167L22.3612 30.9167L22.3616 31.4167C22.3615 31.4167 22.3613 31.4167 22.3612 31.4167ZM37.8334 21.3334C37.8334 11.0407 29.4594 2.66675 19.1667 2.66675C8.87401 2.66675 0.500042 11.0407 0.500042 21.3334C0.500042 31.6261 8.87401 40.0001 19.1667 40.0001C29.4594 40.0001 37.8334 31.6261 37.8334 21.3334Z" fill="#F0F3BD" stroke="#E4E8A8"/>
</g>
</g>
<defs>
<filter id="filter0_i_1290_21504" x="0" y="0.5" width="40" height="44" filterUnits="userSpaceOnUse" color-interpolation-filters="sRGB">
<feFlood flood-opacity="0" result="BackgroundImageFix"/>
<feBlend mode="normal" in="SourceGraphic" in2="BackgroundImageFix" result="shape"/>
<feColorMatrix in="SourceAlpha" type="matrix" values="0 0 0 0 0 0 0 0 0 0 0 0 0 0 0 0 0 0 127 0" result="hardAlpha"/>
<feOffset dy="4"/>
<feGaussianBlur stdDeviation="2"/>
<feComposite in2="hardAlpha" operator="arithmetic" k2="-1" k3="1"/>
<feColorMatrix type="matrix" values="0 0 0 0 0.794674 0 0 0 0 0.808333 0 0 0 0 0.562465 0 0 0 1 0"/>
<feBlend mode="normal" in2="shape" result="effect1_innerShadow_1290_21504"/>
</filter>
<clipPath id="clip0_1290_21504">
<rect width="40" height="40" fill="white" transform="translate(0 0.5)"/>
</clipPath>
</defs>
</svg>
