<svg width="32" height="33" viewBox="0 0 32 33" fill="none" xmlns="http://www.w3.org/2000/svg">
<path d="M30.2174 26.1316C30.0982 26.1316 29.984 26.1789 29.8997 26.2632C29.8155 26.3474 29.7682 26.4617 29.7682 26.5808V29.5823C29.7682 29.624 29.7343 29.658 29.6925 29.658H27.9856V23.0948C27.9856 22.8467 27.7845 22.6456 27.5364 22.6456C27.2883 22.6456 27.0872 22.8467 27.0872 23.0948V29.6581H23.7887L24.6815 28.6759C24.8194 28.5242 24.8843 28.3088 24.8554 28.0996C24.8548 28.0951 24.8541 28.0906 24.8533 28.0862L23.8498 22.1567L24.0344 21.8788L24.0825 21.9129C24.1652 21.9717 24.2597 22.0119 24.3595 22.0307C24.4592 22.0495 24.5619 22.0465 24.6603 22.0218C24.7588 21.9972 24.8508 21.9516 24.93 21.888C25.0091 21.8245 25.0736 21.7445 25.1189 21.6537V21.6536L26.1401 19.6069L28.4727 20.5103C28.5648 20.5503 29.7679 21.102 29.7679 22.5375V24.4843C29.7693 24.6026 29.8172 24.7155 29.9013 24.7987C29.9854 24.8818 30.0989 24.9284 30.2171 24.9285C30.3354 24.9285 30.4489 24.8818 30.533 24.7987C30.6171 24.7156 30.6651 24.6026 30.6664 24.4844V22.5375C30.6664 20.4646 28.8884 19.7098 28.8128 19.6787C28.8099 19.6775 28.8071 19.6763 28.8042 19.6753L24.8321 18.1369V17.3187C25.4522 16.8199 25.8876 16.101 26.0183 15.2814C26.3276 15.2426 26.6145 15.1188 26.8526 14.914C27.0213 14.7689 27.1567 14.5891 27.2494 14.3868C27.3422 14.1845 27.3901 13.9645 27.3899 13.742C27.3901 13.3853 27.2668 13.0396 27.0411 12.7635V11.5513C27.0411 9.17909 25.1111 7.24919 22.739 7.24919C21.674 7.24919 20.6989 7.63899 19.9468 8.28239C19.9375 7.94092 19.8152 7.61217 19.5992 7.3476V6.1355C19.5992 3.76327 17.6692 1.83337 15.2971 1.83337C12.9249 1.83337 10.995 3.76333 10.995 6.1355V7.37923C10.7791 7.63726 10.6582 7.94836 10.6476 8.27856C10.1569 7.85881 9.5777 7.55545 8.95325 7.39115C8.71295 7.3279 8.46756 7.47123 8.40437 7.71117C8.34118 7.95111 8.48445 8.19686 8.72439 8.26005C10.2166 8.65297 11.2588 10.0064 11.2588 11.5513V12.2231C11.2308 12.2178 11.2027 12.2127 11.1747 12.208C11.1686 12.0812 11.1364 12.0038 11.0673 11.9043C10.9523 11.7391 10.7458 11.5332 10.0816 10.8193C9.96744 10.6962 9.8134 10.6175 9.64678 10.5972C9.48017 10.5769 9.31174 10.6163 9.17139 10.7083C8.03368 11.4515 6.65147 11.8303 5.36874 11.755C4.95091 11.7305 4.68995 11.9141 4.57872 12.215C4.56878 12.2166 4.45767 12.239 4.4515 12.2405V11.5513C4.4515 10.0617 5.44685 8.72167 6.87194 8.2924C6.92915 8.276 6.98253 8.24841 7.02899 8.21121C7.07545 8.17402 7.11405 8.12796 7.14256 8.07572C7.17107 8.02348 7.18891 7.9661 7.19506 7.90691C7.20121 7.84771 7.19553 7.78789 7.17837 7.7309C7.1612 7.67392 7.13288 7.62092 7.09506 7.57497C7.05724 7.52902 7.01066 7.49105 6.95804 7.46325C6.90542 7.43545 6.8478 7.41838 6.78853 7.41304C6.72926 7.40769 6.66952 7.41418 6.61277 7.43212C5.74608 7.69314 4.96702 8.23663 4.41928 8.96233C3.85248 9.71306 3.55295 10.6083 3.55295 11.5513V12.7951C3.32666 13.0655 3.20429 13.3941 3.20429 13.742C3.20429 14.5111 3.77091 15.1818 4.57818 15.2818C4.71043 16.0822 5.14467 16.8497 5.83 17.3716V18.1371L1.86233 19.6754C1.85951 19.6765 1.85669 19.6776 1.85389 19.6787C1.77806 19.7098 0 20.4645 0 22.5375V29.5823C0 30.1196 0.436998 30.5565 0.974202 30.5565H14.8083C14.9946 30.5565 15.1769 30.5027 15.3333 30.4017C15.4898 30.5027 15.6721 30.5565 15.8583 30.5565H29.6925C30.2297 30.5565 30.6667 30.1196 30.6667 29.5823V26.5808C30.6667 26.4617 30.6193 26.3474 30.5351 26.2632C30.4508 26.1789 30.3365 26.1316 30.2174 26.1316ZM4.53422 14.3536C4.27086 14.258 4.10261 14.0144 4.10261 13.7419C4.10261 13.4776 4.29427 13.2604 4.53422 13.1573V14.3536ZM25.2986 19.281L24.4169 21.0483L23.4235 20.3427L24.5261 18.9818L25.2986 19.281ZM22.7741 19.7169L21.6123 18.2829V17.8519C21.99 17.9825 22.3968 18.0427 22.7797 18.0429H22.78C23.1759 18.0428 23.5767 17.9676 23.9337 17.8333V18.2856L22.7741 19.7169ZM23.3015 21.3583L23.1363 21.607H22.4121L22.2468 21.3583L22.7742 20.9837L23.3015 21.3583ZM15.3321 14.3011L14.1703 12.867V12.436C14.5465 12.5661 14.9529 12.6269 15.3377 12.627H15.338C15.7332 12.627 16.134 12.5521 16.4917 12.4175V12.8697L15.3321 14.3011ZM15.8595 15.9425L15.6943 16.1912H14.9701L14.8048 15.9425L15.3322 15.568L15.8595 15.9425ZM11.7945 9.82285C11.868 9.84285 11.9434 9.85645 12.02 9.86591C12.1523 10.6663 12.5865 11.4339 13.2718 11.9557V12.7213L12.3554 13.0765C12.3021 12.9645 12.2355 12.8594 12.157 12.7634V11.5513C12.1573 10.9563 12.0339 10.3676 11.7945 9.82285ZM17.7193 9.34716C17.7193 10.662 16.6467 11.7284 15.338 11.7284C13.8615 11.7284 12.8748 10.5841 12.8748 9.34716V7.24291C14.2933 7.29969 15.7669 6.87928 16.9717 6.12939C17.3768 6.56375 17.6178 6.81609 17.7193 6.93325L17.7193 9.34716ZM18.5764 9.86561C18.6521 9.85653 18.7271 9.8421 18.8007 9.82243C18.5604 10.3671 18.4365 10.956 18.4368 11.5513V12.795C18.3687 12.8762 18.3092 12.9642 18.2592 13.0576L17.3902 12.7211V11.9029C18.0102 11.404 18.4457 10.6851 18.5764 9.86561ZM13.5786 13.5667L14.6814 14.9279L13.9294 15.462L13.9282 15.4629L13.6896 15.6325L12.8077 13.8653L13.5786 13.5667ZM16.3661 14.4522L17.084 13.566L17.8566 13.8651L16.9749 15.6325L16.7357 15.4626L16.735 15.462L15.9815 14.9269L16.3661 14.4522ZM16.5925 16.4629L16.6406 16.4971C16.7233 16.5559 16.8178 16.5961 16.9175 16.6149C17.0173 16.6337 17.1199 16.6307 17.2184 16.606C17.3169 16.5814 17.4089 16.5357 17.488 16.4722C17.5672 16.4086 17.6316 16.3287 17.6769 16.2378V16.2378L18.4351 14.7183C18.6956 15.0393 19.0723 15.2346 19.4603 15.2831C19.5974 16.142 20.0616 16.875 20.7139 17.3716V18.1371L16.8947 19.6178L16.4077 16.741L16.5925 16.4629ZM21.0206 18.9825L22.1234 20.3437L21.1315 21.0483L20.2497 19.2811L21.0206 18.9825ZM25.1612 14.763C25.1613 16.0458 24.1195 17.1442 22.78 17.1442C21.2531 17.1442 20.3168 15.9484 20.3168 14.763V12.6588C21.7252 12.715 23.2007 12.3002 24.4136 11.5453C24.8187 11.9796 25.0597 12.232 25.1612 12.3491L25.1612 14.763ZM26.4915 13.7419C26.4915 14.0149 26.3227 14.2581 26.0599 14.3536V13.1315C26.3315 13.2305 26.4915 13.4788 26.4915 13.7419ZM19.3353 11.5513C19.3353 9.67449 20.8622 8.14763 22.7389 8.14763C24.6157 8.14763 26.1425 9.67455 26.1425 11.5513V12.2231C26.1146 12.2177 26.0865 12.2127 26.0584 12.208C26.0523 12.0811 26.02 12.0035 25.9511 11.9043C25.833 11.7348 25.6288 11.5324 24.9653 10.8193C24.7336 10.5706 24.3516 10.5146 24.0552 10.7083C22.9483 11.4314 21.5498 11.8398 20.2191 11.7534C19.8453 11.7289 19.5745 11.9119 19.4625 12.215C19.4525 12.2166 19.3415 12.239 19.3353 12.2405L19.3353 11.5513ZM19.4183 13.1574V14.353C19.1541 14.2578 18.9867 14.0135 18.9867 13.7419C18.9866 13.4776 19.1782 13.2605 19.4183 13.1574ZM19.0494 8.32612C19.0494 8.51527 18.9675 8.69418 18.8248 8.8169C18.7637 8.86938 18.6935 8.91031 18.6178 8.93771V7.71566C18.8864 7.81317 19.0494 8.06012 19.0494 8.32612ZM15.2969 2.73181C17.1737 2.73181 18.7005 4.25867 18.7005 6.13544V6.80728C18.6726 6.80188 18.6445 6.79685 18.6164 6.79219C18.6098 6.65461 18.5702 6.57004 18.4892 6.46061C18.369 6.29781 18.1472 6.07398 17.5234 5.40339C17.4092 5.28036 17.2552 5.20172 17.0886 5.18142C16.922 5.16111 16.7535 5.20045 16.6132 5.29246C15.4443 6.05613 14.0262 6.42779 12.7409 6.33573C12.4265 6.31195 12.1304 6.50194 12.0206 6.79908C12.0106 6.8007 11.8996 6.8231 11.8933 6.82459V6.1355C11.8933 4.25867 13.4202 2.73181 15.2969 2.73181ZM11.9762 7.74148V8.93777C11.7128 8.84218 11.5446 8.59858 11.5446 8.32606C11.5446 8.06324 11.7347 7.84527 11.9762 7.74148ZM11.1757 13.1315C11.4271 13.223 11.5885 13.4423 11.6045 13.7029C11.6246 13.9927 11.4465 14.2547 11.1757 14.3531V13.1315ZM11.1341 15.2829C11.5578 15.2299 11.9467 15.0066 12.2018 14.6631L12.9875 16.2378L12.9875 16.2378C13.0328 16.3287 13.0972 16.4087 13.1764 16.4722C13.2555 16.5358 13.3475 16.5814 13.446 16.606C13.6433 16.6553 13.8543 16.6175 14.0238 16.4971L14.0719 16.4629L14.2566 16.7409L13.7698 19.6169L9.94824 18.1368V17.319H9.94818C10.5844 16.806 11.0064 16.0812 11.1341 15.2829ZM7.89005 19.7169L6.72825 18.2829V17.8519C7.1044 17.9819 7.51085 18.0427 7.89568 18.0428H7.89592C8.28987 18.042 8.68053 17.971 9.04963 17.8333V18.2856L7.89005 19.7169ZM8.41749 21.3583L8.25224 21.607H7.52804L7.36279 21.3583L7.89017 20.9837L8.41749 21.3583ZM9.64193 18.9818L10.4146 19.2811L9.5328 21.0483L9.29358 20.8784L9.29286 20.8778L8.53944 20.3427L9.64193 18.9818ZM5.43271 14.763V12.6588C6.85876 12.7157 8.33333 12.2898 9.52957 11.5453C9.93081 11.9756 10.1755 12.2318 10.2772 12.3491V14.763C10.2772 16.0695 9.21194 17.1442 7.89592 17.1442C6.43069 17.1442 5.43271 16.013 5.43271 14.763ZM6.1366 18.9825L7.2394 20.3437L6.48735 20.8778L6.48621 20.8787L6.24753 21.0483L5.36569 19.2811L6.1366 18.9825ZM3.57954 29.6581V23.0948C3.57954 22.8467 3.37847 22.6456 3.13032 22.6456C2.88218 22.6456 2.68111 22.8467 2.68111 23.0948V29.6581H0.974202C0.954138 29.658 0.9349 29.6501 0.920707 29.6359C0.906514 29.6217 0.898526 29.6025 0.898494 29.5824V22.5375C0.898494 21.0947 2.11419 20.5447 2.1929 20.5107L4.52409 19.6069L5.54537 21.6536L5.54543 21.6537C5.59071 21.7445 5.65515 21.8245 5.73432 21.888C5.81348 21.9516 5.90549 21.9972 6.00399 22.0218C6.20123 22.0711 6.41224 22.0333 6.58181 21.9129L6.6299 21.8788L6.81456 22.1567L5.81101 28.0862C5.81025 28.0906 5.80955 28.0951 5.80891 28.0996C5.78005 28.3087 5.84503 28.5241 5.98297 28.6761L6.8756 29.6581H3.57954V29.6581ZM6.71268 28.1429L7.66676 22.5055H8.11352L9.06765 28.1429L7.89017 29.4383L6.71268 28.1429ZM14.884 29.5823C14.884 29.6241 14.8501 29.6581 14.8083 29.6581H13.1016V23.0948C13.1016 22.9757 13.0542 22.8614 12.97 22.7772C12.8857 22.6929 12.7715 22.6456 12.6523 22.6456C12.5332 22.6456 12.4189 22.6929 12.3347 22.7772C12.2505 22.8614 12.2031 22.9757 12.2031 23.0948V29.6581H8.90468L9.79742 28.6759C9.9353 28.5242 10.0003 28.3088 9.97136 28.0996C9.97072 28.0951 9.97002 28.0906 9.96926 28.0862L8.96571 22.1567L9.15037 21.8788L9.19847 21.9129C9.28122 21.9717 9.37572 22.0118 9.47547 22.0306C9.57522 22.0494 9.67786 22.0464 9.77633 22.0218C9.8748 21.9971 9.96678 21.9515 10.0459 21.8879C10.1251 21.8244 10.1896 21.7445 10.2349 21.6537V21.6536L11.2561 19.607L13.5887 20.5104C14.2686 20.8061 14.8839 21.5689 14.8839 22.5375L14.884 29.5823ZM15.3333 20.9051C15.1472 20.6053 14.8994 20.3278 14.6008 20.0911L15.1088 17.0897H15.5555L16.0638 20.0926C15.7572 20.3361 15.5127 20.616 15.3333 20.9051ZM18.4635 29.6581V23.0948C18.4635 22.8467 18.2625 22.6456 18.0143 22.6456C17.7662 22.6456 17.5651 22.8467 17.5651 23.0948V29.6581H15.8583C15.8382 29.658 15.819 29.6501 15.8048 29.6359C15.7906 29.6217 15.7826 29.6025 15.7825 29.5824V22.5375C15.7825 22.0035 15.95 21.5116 16.3068 21.0984C16.5446 20.8256 16.8601 20.6047 17.077 20.5107L19.4082 19.6069L20.4295 21.6536L20.4296 21.6537C20.4748 21.7445 20.5393 21.8245 20.6184 21.888C20.6976 21.9516 20.7896 21.9972 20.8881 22.0218C21.0853 22.0711 21.2963 22.0333 21.4659 21.9129L21.514 21.8788L21.6986 22.1567L20.6951 28.0862C20.6943 28.0906 20.6936 28.0951 20.693 28.0996C20.6641 28.3087 20.7291 28.5241 20.867 28.6761L21.7597 29.6581H18.4635V29.6581ZM21.5967 28.143L22.5508 22.5056H22.9976L23.9517 28.143L22.7742 29.4384L21.5967 28.143Z" fill="#0E556C"/>
</svg>
