<svg width="32" height="33" viewBox="0 0 32 33" fill="none" xmlns="http://www.w3.org/2000/svg">
<g clip-path="url(#clip0_1308_7402)">
<path d="M20.098 28.2749L14.4635 23.8543M18.7797 29.9552L13.1452 25.5347M16.1398 30.5987L11.8268 27.2151M8.03119 15.4581L6.17205 13.9364C5.91536 13.7263 5.53699 13.7641 5.32695 14.0207L0.135859 20.3627C-0.0742435 20.6194 -0.0364806 20.9977 0.220208 21.2078L2.07935 22.7295C2.33604 22.9396 2.71441 22.9019 2.92445 22.6452L8.11548 16.3032C8.32558 16.0466 8.28782 15.6682 8.03119 15.4581ZM22.8198 16.6316L22.6866 16.7361C21.5333 17.6409 19.8685 17.8429 18.7549 17.8641C17.8551 17.881 16.9655 18.059 16.1284 18.3896L15.3485 18.6977L12.5396 19.8074C12.0083 20.0173 11.7468 20.6125 11.9413 21.1426C12.123 21.6379 12.6556 21.9081 13.1676 21.8004C13.5288 21.7245 13.8917 21.6568 14.256 21.5975C14.7236 21.5215 15.2003 21.6643 15.5471 21.987C15.9618 22.3247 17.2685 23.3403 21.4163 26.5944C21.7299 26.8404 21.8678 27.2268 21.8123 27.5947C23.871 25.8272 24.3402 24.7596 26.5786 23.0035L27.4657 22.3075L22.8198 16.6316Z" stroke="#0E556C" stroke-miterlimit="10" stroke-linecap="round" stroke-linejoin="round"/>
<path d="M27.2405 16.3429L25.3398 14.0208C25.1296 13.7641 24.7513 13.7263 24.4946 13.9364L22.6355 15.4582C22.5744 15.5082 22.5238 15.5697 22.4865 15.6392C22.4493 15.7087 22.4261 15.7849 22.4182 15.8633C22.4104 15.9418 22.4181 16.0211 22.4409 16.0966C22.4637 16.1721 22.5011 16.2424 22.5511 16.3034L27.7422 22.6453C27.9522 22.9019 28.3306 22.9398 28.5873 22.7297L30.4464 21.2079C30.5075 21.1579 30.5581 21.0964 30.5953 21.0269C30.6326 20.9574 30.6558 20.8812 30.6637 20.8028C30.6715 20.7243 30.6638 20.645 30.641 20.5695C30.6182 20.494 30.5807 20.4237 30.5308 20.3627L28.6085 18.0141M17.2275 10.7592V8.49993C17.2275 8.37736 17.2762 8.25981 17.3629 8.17314C17.4496 8.08646 17.5671 8.03777 17.6897 8.03777H19.2185C19.5631 8.03777 19.7625 7.64706 19.5602 7.36804L15.6751 2.00763C15.5066 1.77513 15.1602 1.77513 14.9917 2.00763L11.1066 7.36804C10.9044 7.64706 11.1037 8.03777 11.4483 8.03777H12.9771C13.0997 8.03777 13.2172 8.08646 13.3039 8.17314C13.3906 8.25981 13.4393 8.37736 13.4393 8.49993V14.4733C13.4393 14.5505 13.4545 14.627 13.484 14.6983C13.5136 14.7697 13.5569 14.8345 13.6115 14.8891C13.6661 14.9437 13.7309 14.987 13.8023 15.0165C13.8736 15.0461 13.9501 15.0613 14.0273 15.0613H16.6396C16.9644 15.0613 17.2276 14.798 17.2276 14.4733V12.9189M21.4169 26.5949L21.4164 26.5945C17.2686 23.3404 15.9619 22.3248 15.5472 21.9871C15.2004 21.6644 14.7238 21.5216 14.2561 21.5976C13.8918 21.6569 13.5289 21.7246 13.1677 21.8005C12.6557 21.9081 12.1231 21.6379 11.9414 21.1427C11.7469 20.6126 12.0084 20.0174 12.5397 19.8075L15.3486 18.6977L14.5688 18.3897C13.7317 18.0591 12.8422 17.8811 11.9424 17.8642C10.8288 17.843 9.16381 17.641 8.01044 16.7361L7.85871 16.6171L3.21277 22.2931L4.11846 23.0036C5.12263 23.7915 6.04443 24.6775 6.8902 25.6335C7.71932 26.5706 8.63581 27.4264 9.62023 28.1987L14.8013 32.2634C15.257 32.6209 15.9229 32.571 16.2962 32.1284C16.6882 31.6637 16.614 30.9709 16.1398 30.5988L17.4412 31.6199C17.8968 31.9772 18.5627 31.9274 18.9362 31.4849C19.3282 31.0203 19.254 30.3273 18.7798 29.9553L20.089 30.9825C20.5632 31.3545 21.2538 31.2617 21.6118 30.7704C21.9528 30.3024 21.8427 29.6437 21.3871 29.2863L20.098 28.2749C20.7413 28.7796 21.6908 28.4016 21.8124 27.5948C21.8685 27.224 21.7247 26.8366 21.4169 26.5949ZM27.2987 5.71998L24.5705 1.95573C24.4522 1.79247 24.209 1.79247 24.0906 1.95573L21.3624 5.71998C21.2203 5.91596 21.3603 6.19029 21.6023 6.19029H22.6759C22.7619 6.19029 22.8445 6.22449 22.9054 6.28535C22.9662 6.34622 23.0004 6.42878 23.0004 6.51486V10.3464C23.0004 10.4559 23.0439 10.5609 23.1214 10.6383C23.1988 10.7158 23.3038 10.7593 23.4134 10.7593H25.2478C25.3573 10.7593 25.4624 10.7158 25.5398 10.6383C25.6172 10.5609 25.6607 10.4559 25.6607 10.3464V6.51486C25.6607 6.42878 25.6949 6.34622 25.7558 6.28535C25.8167 6.22449 25.8992 6.19029 25.9853 6.19029H27.0588C27.3008 6.19029 27.4408 5.91596 27.2987 5.71998ZM9.30437 5.71998L6.57613 1.95573C6.45778 1.79247 6.21454 1.79247 6.09619 1.95573L3.36802 5.71998C3.22597 5.91596 3.36598 6.19029 3.60798 6.19029H4.68151C4.72413 6.19029 4.76633 6.19869 4.80571 6.215C4.84509 6.23131 4.88087 6.25522 4.91101 6.28535C4.94115 6.31549 4.96505 6.35127 4.98137 6.39065C4.99768 6.43003 5.00607 6.47223 5.00607 6.51486V10.3464C5.00607 10.4559 5.04958 10.5609 5.12701 10.6383C5.20445 10.7158 5.30948 10.7593 5.41899 10.7593H7.25345C7.36297 10.7593 7.468 10.7158 7.54543 10.6383C7.62287 10.5609 7.66638 10.4559 7.66638 10.3464V6.51486C7.66638 6.42878 7.70057 6.34622 7.76144 6.28535C7.82231 6.22449 7.90486 6.19029 7.99094 6.19029H9.0644C9.30641 6.19029 9.44641 5.91596 9.30437 5.71998Z" stroke="#0E556C" stroke-miterlimit="10" stroke-linecap="round" stroke-linejoin="round"/>
</g>
<defs>
<clipPath id="clip0_1308_7402">
<rect width="32" height="32" fill="white" transform="translate(0 0.5)"/>
</clipPath>
</defs>
</svg>
