<svg width="32" height="33" viewBox="0 0 32 33" fill="none" xmlns="http://www.w3.org/2000/svg">
<path d="M20.2318 12.3322C20.197 12.3351 20.1622 12.3421 20.1282 12.3534L19.0755 12.7043C18.9658 12.7411 18.8461 12.7332 18.7423 12.6823C18.501 12.5632 18.2522 12.4601 17.9974 12.3734C17.8881 12.336 17.798 12.257 17.7466 12.1535L17.2506 11.1614C17.2138 11.0879 17.1573 11.0261 17.0874 10.9829C17.0174 10.9396 16.9368 10.9167 16.8546 10.9167H15.1454C15.0632 10.9167 14.9826 10.9396 14.9127 10.9829C14.8428 11.0261 14.7862 11.0879 14.7495 11.1614L14.2534 12.1535C14.202 12.257 14.1119 12.336 14.0026 12.3734C13.7479 12.46 13.499 12.5632 13.2577 12.6823C13.1539 12.7332 13.0342 12.7411 12.9246 12.7043L11.8719 12.3534C11.7939 12.3274 11.7102 12.3237 11.6302 12.3426C11.5502 12.3615 11.477 12.4022 11.4189 12.4604L10.2103 13.669C10.1521 13.7271 10.1113 13.8003 10.0924 13.8803C10.0736 13.9603 10.0773 14.044 10.1033 14.122L10.4542 15.1747C10.491 15.2843 10.4831 15.404 10.4322 15.5079C10.3131 15.7492 10.2099 15.998 10.1233 16.2528C10.0859 16.362 10.0068 16.4521 9.90341 16.5035L8.91133 16.9996C8.8378 17.0364 8.77595 17.0929 8.73273 17.1628C8.68951 17.2327 8.66662 17.3133 8.66663 17.3955V19.1048C8.66662 19.187 8.68951 19.2676 8.73273 19.3375C8.77595 19.4074 8.8378 19.4639 8.91133 19.5007L9.90341 19.9967C10.0069 20.0481 10.0859 20.1382 10.1233 20.2475C10.2099 20.5023 10.313 20.7511 10.4322 20.9924C10.4831 21.0963 10.491 21.216 10.4542 21.3256L10.1033 22.3783C10.0773 22.4563 10.0736 22.54 10.0924 22.62C10.1113 22.7 10.1521 22.7731 10.2103 22.8313L11.4189 24.0399C11.477 24.098 11.5502 24.1388 11.6302 24.1577C11.7102 24.1766 11.7939 24.1728 11.8719 24.1468L12.9246 23.796C13.0342 23.7591 13.1539 23.767 13.2577 23.818C13.499 23.937 13.7479 24.0402 14.0026 24.1268C14.1119 24.1643 14.202 24.2433 14.2534 24.3468L14.7495 25.3388C14.7862 25.4124 14.8428 25.4742 14.9127 25.5174C14.9826 25.5606 15.0632 25.5835 15.1454 25.5835H16.8546C16.9368 25.5835 17.0174 25.5606 17.0874 25.5174C17.1573 25.4742 17.2138 25.4124 17.2506 25.3388L17.7466 24.3468C17.798 24.2433 17.8881 24.1643 17.9974 24.1268C18.2522 24.0403 18.501 23.9371 18.7423 23.818C18.8461 23.7671 18.9658 23.7592 19.0755 23.796L20.1282 24.1468C20.2062 24.1728 20.2898 24.1766 20.3699 24.1577C20.4499 24.1388 20.523 24.098 20.5812 24.0399L21.7898 22.8313C21.8479 22.7731 21.8887 22.7 21.9076 22.62C21.9265 22.54 21.9227 22.4563 21.8967 22.3783L21.5458 21.3256C21.509 21.216 21.5169 21.0962 21.5679 20.9924C21.6869 20.7511 21.7901 20.5023 21.8767 20.2475C21.9142 20.1383 21.9932 20.0481 22.0966 19.9967L23.0887 19.5007C23.1622 19.4639 23.2241 19.4074 23.2673 19.3375C23.3105 19.2676 23.3334 19.187 23.3334 19.1048V17.3955C23.3334 17.3133 23.3105 17.2327 23.2673 17.1628C23.2241 17.0929 23.1622 17.0364 23.0887 16.9996L22.0966 16.5035C21.9932 16.4521 21.9142 16.362 21.8767 16.2528C21.7902 15.998 21.687 15.7491 21.5679 15.5079C21.517 15.404 21.509 15.2843 21.5458 15.1747L21.8967 14.122C21.9227 14.044 21.9265 13.9603 21.9076 13.8803C21.8887 13.8003 21.8479 13.7271 21.7898 13.669" stroke="#0E556C" stroke-miterlimit="10" stroke-linecap="round" stroke-linejoin="round"/>
<path d="M13.2499 16.4167L11.4166 18.2501L13.2499 20.0834M18.75 16.4167L20.5833 18.2501L18.75 20.0834M16.9166 16.4167L15.0833 20.0834" stroke="#0E556C" stroke-miterlimit="10" stroke-linecap="round" stroke-linejoin="round"/>
<path d="M8.34888 28.3333H29.1911C30.006 28.3333 30.6666 27.6727 30.6666 26.8578V8.16667M30.6666 8.16667H1.33331M30.6666 8.16667V5.97552C30.6666 5.16062 30.006 4.5 29.1911 4.5H6.24107M1.33331 8.16667V26.8578C1.33331 27.6727 1.99393 28.3334 2.80883 28.3334H6.28315M1.33331 8.16667V5.97552C1.33331 5.16062 1.99393 4.5 2.80883 4.5H4.17534" stroke="#0E556C" stroke-miterlimit="10" stroke-linecap="round" stroke-linejoin="round"/>
</svg>
