<svg width="81" height="80" viewBox="0 0 81 80" fill="none" xmlns="http://www.w3.org/2000/svg">
<g clip-path="url(#clip0_21_3974)">
<mask id="path-1-inside-1_21_3974" fill="white">
<path d="M9.3292 31.267C9.43327 31.3713 9.55693 31.454 9.69307 31.5104C9.82921 31.5669 9.97516 31.5958 10.1225 31.5956C10.3444 31.5956 10.5614 31.5298 10.7459 31.4065C10.9304 31.2832 11.0742 31.1079 11.1591 30.9029C11.2441 30.6979 11.2663 30.4723 11.2231 30.2546C11.1798 30.0369 11.073 29.837 10.9161 29.68L8.19162 26.9555L10.9163 24.2315C11.1209 24.0199 11.2341 23.7364 11.2316 23.442C11.2291 23.1477 11.1111 22.8661 10.9029 22.658C10.6948 22.4498 10.4132 22.3318 10.1189 22.3293C9.82453 22.3268 9.54099 22.44 9.32935 22.6446L5.81164 26.1623C5.70742 26.2665 5.62475 26.3902 5.56834 26.5263C5.51194 26.6625 5.48291 26.8084 5.48291 26.9558C5.48291 27.1031 5.51194 27.2491 5.56834 27.3852C5.62475 27.5214 5.70742 27.6451 5.81164 27.7493L9.3292 31.267ZM20.4639 26.9555L17.7394 29.68C17.6352 29.7842 17.5525 29.908 17.4961 30.0441C17.4398 30.1803 17.4108 30.3262 17.4108 30.4736C17.4109 30.621 17.44 30.7669 17.4965 30.903C17.5529 31.0392 17.6357 31.1628 17.74 31.267C17.9586 31.4856 18.246 31.5956 18.5332 31.5956C18.8204 31.5956 19.1076 31.4857 19.3263 31.267L22.8446 27.7487C22.9488 27.6445 23.0315 27.5209 23.0879 27.3848C23.1442 27.2487 23.1733 27.1028 23.1733 26.9555C23.1733 26.8082 23.1442 26.6623 23.0879 26.5262C23.0315 26.3901 22.9488 26.2665 22.8446 26.1623L19.3263 22.644C19.2222 22.5398 19.0985 22.4572 18.9624 22.4008C18.8263 22.3444 18.6805 22.3154 18.5332 22.3154C18.3858 22.3154 18.24 22.3444 18.1039 22.4008C17.9678 22.4572 17.8441 22.5398 17.74 22.644C17.6357 22.7481 17.5529 22.8718 17.4965 23.008C17.44 23.1441 17.4109 23.2901 17.4109 23.4375C17.4109 23.5849 17.44 23.7308 17.4965 23.867C17.5529 24.0031 17.6357 24.1268 17.74 24.2309L20.4639 26.9555ZM12.6552 31.5179C12.7897 31.5705 12.929 31.5958 13.0652 31.5958C13.2907 31.5958 13.511 31.5278 13.6973 31.4008C13.8837 31.2738 14.0275 31.0937 14.11 30.8838L16.8737 23.8478C16.9295 23.7103 16.9574 23.5631 16.956 23.4148C16.9545 23.2664 16.9236 23.1198 16.865 22.9835C16.8065 22.8472 16.7215 22.7238 16.615 22.6206C16.5085 22.5173 16.3825 22.4362 16.2445 22.3819C16.1064 22.3277 15.9589 22.3013 15.8106 22.3044C15.6623 22.3076 15.516 22.3401 15.3804 22.4001C15.2447 22.4601 15.1223 22.5464 15.0202 22.6541C14.9181 22.7617 14.8383 22.8885 14.7856 23.0272L12.0211 30.0632C11.7948 30.6399 12.0784 31.2915 12.6552 31.5179ZM7.24001 38.1784H14.7989C15.0965 38.1784 15.382 38.0602 15.5924 37.8497C15.8029 37.6393 15.9211 37.3539 15.9211 37.0562C15.9211 36.7586 15.8029 36.4732 15.5924 36.2628C15.382 36.0523 15.0965 35.9341 14.7989 35.9341H7.24001C7.09268 35.9341 6.94679 35.9631 6.81067 36.0194C6.67455 36.0758 6.55087 36.1584 6.4467 36.2626C6.34252 36.3668 6.25988 36.4905 6.20351 36.6266C6.14714 36.7627 6.11814 36.9086 6.11816 37.0559C6.11808 37.2033 6.14704 37.3493 6.20338 37.4854C6.25972 37.6216 6.34235 37.7454 6.44653 37.8496C6.55071 37.9538 6.67441 38.0365 6.81056 38.0929C6.94671 38.1494 7.09264 38.1784 7.24001 38.1784ZM32.2087 35.9341H18.9192C18.6216 35.9341 18.3362 36.0523 18.1257 36.2628C17.9153 36.4732 17.797 36.7586 17.797 37.0562C17.797 37.3539 17.9153 37.6393 18.1257 37.8497C18.3362 38.0602 18.6216 38.1784 18.9192 38.1784H32.2087C32.3576 38.1808 32.5055 38.1536 32.6438 38.0983C32.782 38.043 32.9079 37.9607 33.0141 37.8563C33.1203 37.7518 33.2046 37.6273 33.2621 37.49C33.3197 37.3526 33.3493 37.2052 33.3493 37.0562C33.3493 36.9073 33.3197 36.7599 33.2621 36.6225C33.2046 36.4852 33.1203 36.3606 33.0141 36.2562C32.9079 36.1518 32.782 36.0695 32.6438 36.0142C32.5055 35.9589 32.3576 35.9317 32.2087 35.9341ZM7.24001 42.9111H10.46C10.7577 42.9111 11.0431 42.7929 11.2536 42.5824C11.464 42.372 11.5823 42.0865 11.5823 41.7889C11.5823 41.4912 11.464 41.2058 11.2536 40.9953C11.0431 40.7849 10.7577 40.6666 10.46 40.6666H7.24001C7.09267 40.6666 6.94677 40.6956 6.81064 40.752C6.67451 40.8084 6.55082 40.891 6.44664 40.9952C6.34246 41.0994 6.25983 41.2231 6.20347 41.3593C6.14711 41.4954 6.11812 41.6413 6.11816 41.7887C6.11808 41.936 6.14704 42.082 6.20338 42.2182C6.25972 42.3543 6.34235 42.4781 6.44653 42.5823C6.55071 42.6865 6.67441 42.7692 6.81056 42.8257C6.94671 42.8821 7.09264 42.9111 7.24001 42.9111ZM28.1037 40.6666C27.9564 40.6666 27.8104 40.6956 27.6743 40.752C27.5382 40.8084 27.4145 40.891 27.3103 40.9952C27.2061 41.0994 27.1235 41.2231 27.0671 41.3593C27.0108 41.4954 26.9818 41.6413 26.9818 41.7887C26.9818 41.936 27.0107 42.082 27.0671 42.2182C27.1234 42.3543 27.206 42.4781 27.3102 42.5823C27.4144 42.6865 27.5381 42.7692 27.6742 42.8257C27.8104 42.8821 27.9563 42.9111 28.1037 42.9111H30.0644C30.2129 42.9128 30.3602 42.8851 30.4979 42.8294C30.6355 42.7738 30.7608 42.6914 30.8664 42.587C30.9719 42.4827 31.0558 42.3584 31.113 42.2214C31.1702 42.0844 31.1997 41.9374 31.1997 41.7889C31.1997 41.6404 31.1702 41.4934 31.113 41.3564C31.0558 41.2194 30.9719 41.0951 30.8664 40.9907C30.7608 40.8863 30.6355 40.8039 30.4979 40.7483C30.3602 40.6927 30.2129 40.6649 30.0644 40.6666H28.1037ZM25.1504 41.7887C25.1503 41.4911 25.0321 41.2058 24.8217 40.9954C24.6114 40.785 24.326 40.6667 24.0285 40.6666H14.3972C14.2498 40.6666 14.1039 40.6956 13.9678 40.752C13.8316 40.8083 13.7079 40.891 13.6037 40.9952C13.4995 41.0994 13.4169 41.2231 13.3605 41.3592C13.3041 41.4954 13.2751 41.6413 13.2752 41.7887C13.2751 41.936 13.304 42.082 13.3604 42.2182C13.4168 42.3544 13.4994 42.4781 13.6036 42.5824C13.7078 42.6866 13.8315 42.7693 13.9677 42.8257C14.1038 42.8821 14.2498 42.9111 14.3972 42.9111H24.0285C24.1759 42.9111 24.3218 42.882 24.4579 42.8256C24.594 42.7691 24.7177 42.6865 24.8219 42.5822C24.9261 42.478 25.0087 42.3543 25.0651 42.2181C25.1214 42.0819 25.1504 41.936 25.1504 41.7887ZM32.5005 41.7887C32.5005 41.936 32.5295 42.0819 32.5858 42.2181C32.6422 42.3543 32.7248 42.478 32.829 42.5822C32.9332 42.6865 33.0568 42.7691 33.193 42.8256C33.3291 42.882 33.475 42.9111 33.6224 42.9111H37.2952C37.4437 42.9128 37.591 42.8851 37.7287 42.8294C37.8663 42.7738 37.9916 42.6914 38.0972 42.587C38.2028 42.4827 38.2866 42.3584 38.3438 42.2214C38.401 42.0844 38.4305 41.9374 38.4305 41.7889C38.4305 41.6404 38.401 41.4934 38.3438 41.3564C38.2866 41.2194 38.2028 41.0951 38.0972 40.9907C37.9916 40.8863 37.8663 40.8039 37.7287 40.7483C37.591 40.6927 37.4437 40.6649 37.2952 40.6666H33.6224C33.3249 40.6667 33.0395 40.785 32.8291 40.9954C32.6188 41.2058 32.5006 41.4911 32.5005 41.7887ZM26.3899 27.8557H30.2637C30.4122 27.8574 30.5595 27.8297 30.6972 27.774C30.8348 27.7184 30.9601 27.636 31.0657 27.5317C31.1713 27.4273 31.2551 27.303 31.3123 27.166C31.3695 27.029 31.399 26.882 31.399 26.7335C31.399 26.585 31.3695 26.438 31.3123 26.301C31.2551 26.164 31.1713 26.0397 31.0657 25.9353C30.9601 25.8309 30.8348 25.7486 30.6972 25.6929C30.5595 25.6373 30.4122 25.6095 30.2637 25.6113H26.3899C26.0923 25.6113 25.8068 25.7295 25.5964 25.94C25.3859 26.1504 25.2677 26.4359 25.2677 26.7335C25.2677 27.0311 25.3859 27.3166 25.5964 27.527C25.8068 27.7375 26.0923 27.8557 26.3899 27.8557ZM34.6027 27.8557H58.2402C58.3876 27.8557 58.5335 27.8267 58.6697 27.7703C58.8058 27.7139 58.9295 27.6312 59.0337 27.5269C59.1379 27.4227 59.2205 27.2989 59.2768 27.1628C59.3332 27.0266 59.3622 26.8806 59.3621 26.7333C59.3621 26.5859 59.3331 26.44 59.2768 26.3039C59.2204 26.1677 59.1378 26.044 59.0336 25.9399C58.9294 25.8357 58.8057 25.753 58.6696 25.6966C58.5335 25.6402 58.3876 25.6112 58.2402 25.6113H34.6027C34.3051 25.6113 34.0197 25.7295 33.8092 25.94C33.5987 26.1504 33.4805 26.4359 33.4805 26.7335C33.4805 27.0311 33.5987 27.3166 33.8092 27.527C34.0197 27.7375 34.3051 27.8557 34.6027 27.8557ZM54.6499 30.5481H45.0747C44.7771 30.5481 44.4917 30.6663 44.2812 30.8767C44.0708 31.0872 43.9526 31.3726 43.9526 31.6702C43.9526 31.9678 44.0708 32.2533 44.2812 32.4637C44.4917 32.6742 44.7771 32.7924 45.0747 32.7924H54.6499C54.9475 32.7924 55.2329 32.6742 55.4434 32.4637C55.6538 32.2533 55.772 31.9678 55.772 31.6702C55.772 31.3726 55.6538 31.0872 55.4434 30.8767C55.2329 30.6663 54.9475 30.5481 54.6499 30.5481ZM41.4845 30.5481H38.1931C38.0457 30.5481 37.8998 30.5771 37.7636 30.6335C37.6275 30.6899 37.5038 30.7726 37.3996 30.8769C37.2954 30.9811 37.2128 31.1048 37.1564 31.241C37.1001 31.3772 37.0711 31.5231 37.0712 31.6705C37.0712 31.8178 37.1002 31.9637 37.1566 32.0999C37.2129 32.236 37.2956 32.3597 37.3998 32.4638C37.5039 32.568 37.6276 32.6506 37.7637 32.707C37.8999 32.7634 38.0457 32.7924 38.1931 32.7924H41.4844C41.6317 32.7924 41.7776 32.7634 41.9137 32.707C42.0498 32.6506 42.1735 32.568 42.2777 32.4638C42.3819 32.3597 42.4645 32.236 42.5209 32.0999C42.5773 31.9637 42.6063 31.8178 42.6062 31.6705C42.6063 31.5231 42.5774 31.3772 42.521 31.241C42.4647 31.1048 42.382 30.9811 42.2779 30.8769C42.1737 30.7726 42.05 30.6899 41.9138 30.6335C41.7777 30.5771 41.6318 30.5481 41.4844 30.5481H41.4845ZM26.3899 32.7924H34.453C34.7506 32.7924 35.036 32.6742 35.2465 32.4637C35.4569 32.2533 35.5752 31.9678 35.5752 31.6702C35.5752 31.3726 35.4569 31.0872 35.2465 30.8767C35.036 30.6663 34.7506 30.5481 34.453 30.5481H26.3899C26.241 30.5456 26.0931 30.5729 25.9548 30.6282C25.8165 30.6835 25.6907 30.7657 25.5845 30.8702C25.4783 30.9746 25.394 31.0991 25.3365 31.2365C25.2789 31.3739 25.2493 31.5213 25.2493 31.6702C25.2493 31.8191 25.2789 31.9666 25.3365 32.1039C25.394 32.2413 25.4783 32.3658 25.5845 32.4703C25.6907 32.5747 25.8165 32.657 25.9548 32.7123C26.0931 32.7676 26.241 32.7948 26.3899 32.7924ZM24.0426 45.3595H16.4841C16.3367 45.3595 16.1908 45.3885 16.0547 45.4448C15.9185 45.5012 15.7948 45.5838 15.6905 45.688C15.5863 45.7922 15.5036 45.9158 15.4472 46.052C15.3908 46.1881 15.3617 46.334 15.3617 46.4814C15.3617 46.6288 15.3907 46.7747 15.4471 46.9108C15.5036 47.047 15.5863 47.1707 15.6905 47.2749C15.7947 47.3791 15.9184 47.4617 16.0546 47.5181C16.1908 47.5744 16.3367 47.6034 16.4841 47.6034H24.0426C24.3401 47.6033 24.6254 47.4851 24.8358 47.2747C25.0462 47.0643 25.1644 46.7789 25.1644 46.4814C25.1644 46.1839 25.0461 45.8986 24.8358 45.6882C24.6254 45.4778 24.3401 45.3596 24.0426 45.3595ZM13.0473 45.3595H7.23986C7.09253 45.3595 6.94664 45.3885 6.81052 45.4449C6.6744 45.5013 6.55072 45.5839 6.44655 45.6881C6.34237 45.7922 6.25973 45.9159 6.20336 46.052C6.14699 46.1882 6.11799 46.334 6.11801 46.4814C6.11797 46.6287 6.14696 46.7746 6.20332 46.9108C6.25968 47.0469 6.34231 47.1706 6.44649 47.2748C6.55067 47.379 6.67436 47.4616 6.81049 47.518C6.94662 47.5744 7.09252 47.6034 7.23986 47.6034H13.047C13.1943 47.6034 13.3402 47.5744 13.4763 47.518C13.6125 47.4616 13.7361 47.379 13.8403 47.2748C13.9445 47.1706 14.0271 47.0469 14.0835 46.9108C14.1399 46.7746 14.1689 46.6287 14.1688 46.4814C14.1688 46.334 14.1398 46.1882 14.0835 46.052C14.0271 45.9159 13.9445 45.7922 13.8403 45.6881C13.7361 45.5839 13.6124 45.5013 13.4763 45.4449C13.3402 45.3885 13.1943 45.3595 13.047 45.3595H13.0473ZM37.7445 45.3595H27.8701C27.7228 45.3595 27.5769 45.3885 27.4408 45.4449C27.3046 45.5013 27.181 45.5839 27.0768 45.6881C26.9726 45.7922 26.89 45.9159 26.8336 46.052C26.7772 46.1882 26.7482 46.334 26.7482 46.4814C26.7482 46.6287 26.7772 46.7746 26.8336 46.9108C26.8899 47.0469 26.9725 47.1706 27.0767 47.2748C27.1809 47.379 27.3046 47.4616 27.4407 47.518C27.5769 47.5744 27.7228 47.6034 27.8701 47.6034H37.7443C38.0418 47.6033 38.3272 47.4851 38.5375 47.2747C38.7479 47.0643 38.8661 46.7789 38.8662 46.4814C38.8661 46.1839 38.7479 45.8986 38.5375 45.6882C38.3271 45.4778 38.0418 45.3596 37.7443 45.3595H37.7445ZM51.0976 39.5957H45.6982C45.4006 39.5957 45.1152 39.7139 44.9047 39.9244C44.6943 40.1348 44.5761 40.4202 44.5761 40.7179C44.5761 41.0155 44.6943 41.3009 44.9047 41.5113C45.1152 41.7218 45.4006 41.84 45.6982 41.84H51.0976C51.245 41.84 51.3909 41.811 51.5271 41.7546C51.6632 41.6982 51.787 41.6155 51.8912 41.5113C51.9954 41.407 52.078 41.2833 52.1343 41.1471C52.1907 41.0109 52.2197 40.8649 52.2196 40.7176C52.2196 40.5702 52.1906 40.4243 52.1342 40.2882C52.0778 40.1521 51.9952 40.0284 51.891 39.9242C51.7868 39.82 51.6631 39.7374 51.527 39.681C51.3908 39.6247 51.2449 39.5957 51.0976 39.5957ZM60.467 41.84H68.0891C68.238 41.8424 68.3859 41.8152 68.5242 41.7599C68.6625 41.7046 68.7884 41.6223 68.8945 41.5179C69.0007 41.4135 69.085 41.2889 69.1426 41.1516C69.2001 41.0142 69.2298 40.8668 69.2298 40.7179C69.2298 40.5689 69.2001 40.4215 69.1426 40.2841C69.085 40.1468 69.0007 40.0223 68.8945 39.9178C68.7884 39.8134 68.6625 39.7311 68.5242 39.6758C68.3859 39.6205 68.238 39.5933 68.0891 39.5957H60.4672C60.3198 39.5957 60.1739 39.6247 60.0378 39.6811C59.9017 39.7374 59.778 39.8201 59.6738 39.9242C59.5697 40.0284 59.487 40.1521 59.4307 40.2882C59.3743 40.4243 59.3453 40.5702 59.3453 40.7176C59.3453 40.8649 59.3742 41.0108 59.4306 41.147C59.487 41.2832 59.5696 41.4069 59.6738 41.5111C59.7779 41.6154 59.9016 41.698 60.0378 41.7545C60.1739 41.8109 60.3198 41.84 60.4672 41.84H60.467ZM56.6557 39.5957H54.9091C54.6115 39.5957 54.326 39.7139 54.1156 39.9244C53.9052 40.1348 53.7869 40.4202 53.7869 40.7179C53.7869 41.0155 53.9052 41.3009 54.1156 41.5113C54.326 41.7218 54.6115 41.84 54.9091 41.84H56.6557C56.803 41.84 56.949 41.811 57.0851 41.7546C57.2213 41.6981 57.345 41.6155 57.4491 41.5112C57.5533 41.407 57.6359 41.2832 57.6923 41.1471C57.7486 41.0109 57.7776 40.8649 57.7775 40.7176C57.7775 40.5702 57.7485 40.4243 57.6922 40.2882C57.6358 40.1521 57.5532 40.0284 57.449 39.9242C57.3448 39.8201 57.2211 39.7374 57.085 39.6811C56.9489 39.6247 56.803 39.5957 56.6557 39.5957ZM45.6982 54.0674H51.0976C51.2449 54.0675 51.3909 54.0385 51.5271 53.9821C51.6632 53.9258 51.7869 53.8431 51.8911 53.7389C51.9953 53.6347 52.078 53.511 52.1343 53.3749C52.1907 53.2387 52.2197 53.0928 52.2196 52.9454C52.2196 52.798 52.1906 52.6521 52.1342 52.516C52.0778 52.3799 51.9952 52.2562 51.891 52.152C51.7868 52.0478 51.6631 51.9652 51.527 51.9088C51.3908 51.8525 51.2449 51.8235 51.0976 51.8235H45.6982C45.4007 51.8236 45.1154 51.9418 44.905 52.1522C44.6947 52.3626 44.5765 52.6479 44.5764 52.9454C44.5763 53.0927 44.6053 53.2386 44.6617 53.3748C44.718 53.5109 44.8007 53.6346 44.9049 53.7388C45.009 53.843 45.1327 53.9256 45.2689 53.982C45.405 54.0384 45.5509 54.0674 45.6982 54.0674ZM60.467 54.0674H68.0891C68.3867 54.0674 68.672 53.9492 68.8824 53.7388C69.0928 53.5284 69.211 53.243 69.211 52.9455C69.211 52.6479 69.0928 52.3625 68.8824 52.1521C68.672 51.9417 68.3867 51.8235 68.0891 51.8235H60.4672C60.3198 51.8235 60.1739 51.8525 60.0378 51.9089C59.9017 51.9653 59.778 52.0479 59.6738 52.1521C59.5697 52.2562 59.487 52.3799 59.4307 52.516C59.3743 52.6522 59.3453 52.7981 59.3453 52.9454C59.3453 53.0927 59.3743 53.2386 59.4306 53.3748C59.487 53.5109 59.5696 53.6346 59.6738 53.7388C59.778 53.843 59.9017 53.9256 60.0378 53.982C60.1739 54.0384 60.3198 54.0674 60.4672 54.0674H60.467ZM54.9091 54.0674H56.6557C56.9532 54.0674 57.2386 53.9492 57.449 53.7388C57.6594 53.5284 57.7776 53.243 57.7776 52.9455C57.7776 52.6479 57.6594 52.3625 57.449 52.1521C57.2386 51.9417 56.9532 51.8235 56.6557 51.8235H54.9091C54.7617 51.8235 54.6158 51.8525 54.4797 51.9088C54.3436 51.9652 54.2199 52.0478 54.1157 52.152C54.0115 52.2562 53.9288 52.3799 53.8724 52.516C53.8161 52.6521 53.7871 52.798 53.7871 52.9454C53.787 53.0928 53.816 53.2387 53.8723 53.3749C53.9287 53.511 54.0113 53.6347 54.1155 53.7389C54.2197 53.8431 54.3434 53.9258 54.4796 53.9821C54.6158 54.0385 54.7617 54.0675 54.9091 54.0674ZM51.0976 64.0514H45.6982C45.0788 64.0514 44.5764 64.5539 44.5764 65.1732C44.5764 65.7925 45.0788 66.2952 45.6982 66.2952H51.0976C51.7177 66.2952 52.2196 65.7927 52.2196 65.1732C52.2196 64.5537 51.7177 64.0514 51.0976 64.0514ZM68.0891 64.0514H60.4672C59.8472 64.0514 59.3453 64.5539 59.3453 65.1732C59.3453 65.7925 59.8471 66.2952 60.4672 66.2952H68.0893C68.7092 66.2952 69.2117 65.7927 69.2117 65.1732C69.2117 64.5537 68.7093 64.0514 68.0893 64.0514H68.0891ZM56.6557 64.0514H54.9091C54.289 64.0514 53.7865 64.5539 53.7865 65.1732C53.7865 65.7925 54.289 66.2952 54.9091 66.2952H56.6557C57.2756 66.2952 57.7775 65.7927 57.7775 65.1732C57.7775 64.5537 57.2756 64.0514 56.6557 64.0514Z"/>
</mask>
<path d="M9.3292 31.267C9.43327 31.3713 9.55693 31.454 9.69307 31.5104C9.82921 31.5669 9.97516 31.5958 10.1225 31.5956C10.3444 31.5956 10.5614 31.5298 10.7459 31.4065C10.9304 31.2832 11.0742 31.1079 11.1591 30.9029C11.2441 30.6979 11.2663 30.4723 11.2231 30.2546C11.1798 30.0369 11.073 29.837 10.9161 29.68L8.19162 26.9555L10.9163 24.2315C11.1209 24.0199 11.2341 23.7364 11.2316 23.442C11.2291 23.1477 11.1111 22.8661 10.9029 22.658C10.6948 22.4498 10.4132 22.3318 10.1189 22.3293C9.82453 22.3268 9.54099 22.44 9.32935 22.6446L5.81164 26.1623C5.70742 26.2665 5.62475 26.3902 5.56834 26.5263C5.51194 26.6625 5.48291 26.8084 5.48291 26.9558C5.48291 27.1031 5.51194 27.2491 5.56834 27.3852C5.62475 27.5214 5.70742 27.6451 5.81164 27.7493L9.3292 31.267ZM20.4639 26.9555L17.7394 29.68C17.6352 29.7842 17.5525 29.908 17.4961 30.0441C17.4398 30.1803 17.4108 30.3262 17.4108 30.4736C17.4109 30.621 17.44 30.7669 17.4965 30.903C17.5529 31.0392 17.6357 31.1628 17.74 31.267C17.9586 31.4856 18.246 31.5956 18.5332 31.5956C18.8204 31.5956 19.1076 31.4857 19.3263 31.267L22.8446 27.7487C22.9488 27.6445 23.0315 27.5209 23.0879 27.3848C23.1442 27.2487 23.1733 27.1028 23.1733 26.9555C23.1733 26.8082 23.1442 26.6623 23.0879 26.5262C23.0315 26.3901 22.9488 26.2665 22.8446 26.1623L19.3263 22.644C19.2222 22.5398 19.0985 22.4572 18.9624 22.4008C18.8263 22.3444 18.6805 22.3154 18.5332 22.3154C18.3858 22.3154 18.24 22.3444 18.1039 22.4008C17.9678 22.4572 17.8441 22.5398 17.74 22.644C17.6357 22.7481 17.5529 22.8718 17.4965 23.008C17.44 23.1441 17.4109 23.2901 17.4109 23.4375C17.4109 23.5849 17.44 23.7308 17.4965 23.867C17.5529 24.0031 17.6357 24.1268 17.74 24.2309L20.4639 26.9555ZM12.6552 31.5179C12.7897 31.5705 12.929 31.5958 13.0652 31.5958C13.2907 31.5958 13.511 31.5278 13.6973 31.4008C13.8837 31.2738 14.0275 31.0937 14.11 30.8838L16.8737 23.8478C16.9295 23.7103 16.9574 23.5631 16.956 23.4148C16.9545 23.2664 16.9236 23.1198 16.865 22.9835C16.8065 22.8472 16.7215 22.7238 16.615 22.6206C16.5085 22.5173 16.3825 22.4362 16.2445 22.3819C16.1064 22.3277 15.9589 22.3013 15.8106 22.3044C15.6623 22.3076 15.516 22.3401 15.3804 22.4001C15.2447 22.4601 15.1223 22.5464 15.0202 22.6541C14.9181 22.7617 14.8383 22.8885 14.7856 23.0272L12.0211 30.0632C11.7948 30.6399 12.0784 31.2915 12.6552 31.5179ZM7.24001 38.1784H14.7989C15.0965 38.1784 15.382 38.0602 15.5924 37.8497C15.8029 37.6393 15.9211 37.3539 15.9211 37.0562C15.9211 36.7586 15.8029 36.4732 15.5924 36.2628C15.382 36.0523 15.0965 35.9341 14.7989 35.9341H7.24001C7.09268 35.9341 6.94679 35.9631 6.81067 36.0194C6.67455 36.0758 6.55087 36.1584 6.4467 36.2626C6.34252 36.3668 6.25988 36.4905 6.20351 36.6266C6.14714 36.7627 6.11814 36.9086 6.11816 37.0559C6.11808 37.2033 6.14704 37.3493 6.20338 37.4854C6.25972 37.6216 6.34235 37.7454 6.44653 37.8496C6.55071 37.9538 6.67441 38.0365 6.81056 38.0929C6.94671 38.1494 7.09264 38.1784 7.24001 38.1784ZM32.2087 35.9341H18.9192C18.6216 35.9341 18.3362 36.0523 18.1257 36.2628C17.9153 36.4732 17.797 36.7586 17.797 37.0562C17.797 37.3539 17.9153 37.6393 18.1257 37.8497C18.3362 38.0602 18.6216 38.1784 18.9192 38.1784H32.2087C32.3576 38.1808 32.5055 38.1536 32.6438 38.0983C32.782 38.043 32.9079 37.9607 33.0141 37.8563C33.1203 37.7518 33.2046 37.6273 33.2621 37.49C33.3197 37.3526 33.3493 37.2052 33.3493 37.0562C33.3493 36.9073 33.3197 36.7599 33.2621 36.6225C33.2046 36.4852 33.1203 36.3606 33.0141 36.2562C32.9079 36.1518 32.782 36.0695 32.6438 36.0142C32.5055 35.9589 32.3576 35.9317 32.2087 35.9341ZM7.24001 42.9111H10.46C10.7577 42.9111 11.0431 42.7929 11.2536 42.5824C11.464 42.372 11.5823 42.0865 11.5823 41.7889C11.5823 41.4912 11.464 41.2058 11.2536 40.9953C11.0431 40.7849 10.7577 40.6666 10.46 40.6666H7.24001C7.09267 40.6666 6.94677 40.6956 6.81064 40.752C6.67451 40.8084 6.55082 40.891 6.44664 40.9952C6.34246 41.0994 6.25983 41.2231 6.20347 41.3593C6.14711 41.4954 6.11812 41.6413 6.11816 41.7887C6.11808 41.936 6.14704 42.082 6.20338 42.2182C6.25972 42.3543 6.34235 42.4781 6.44653 42.5823C6.55071 42.6865 6.67441 42.7692 6.81056 42.8257C6.94671 42.8821 7.09264 42.9111 7.24001 42.9111ZM28.1037 40.6666C27.9564 40.6666 27.8104 40.6956 27.6743 40.752C27.5382 40.8084 27.4145 40.891 27.3103 40.9952C27.2061 41.0994 27.1235 41.2231 27.0671 41.3593C27.0108 41.4954 26.9818 41.6413 26.9818 41.7887C26.9818 41.936 27.0107 42.082 27.0671 42.2182C27.1234 42.3543 27.206 42.4781 27.3102 42.5823C27.4144 42.6865 27.5381 42.7692 27.6742 42.8257C27.8104 42.8821 27.9563 42.9111 28.1037 42.9111H30.0644C30.2129 42.9128 30.3602 42.8851 30.4979 42.8294C30.6355 42.7738 30.7608 42.6914 30.8664 42.587C30.9719 42.4827 31.0558 42.3584 31.113 42.2214C31.1702 42.0844 31.1997 41.9374 31.1997 41.7889C31.1997 41.6404 31.1702 41.4934 31.113 41.3564C31.0558 41.2194 30.9719 41.0951 30.8664 40.9907C30.7608 40.8863 30.6355 40.8039 30.4979 40.7483C30.3602 40.6927 30.2129 40.6649 30.0644 40.6666H28.1037ZM25.1504 41.7887C25.1503 41.4911 25.0321 41.2058 24.8217 40.9954C24.6114 40.785 24.326 40.6667 24.0285 40.6666H14.3972C14.2498 40.6666 14.1039 40.6956 13.9678 40.752C13.8316 40.8083 13.7079 40.891 13.6037 40.9952C13.4995 41.0994 13.4169 41.2231 13.3605 41.3592C13.3041 41.4954 13.2751 41.6413 13.2752 41.7887C13.2751 41.936 13.304 42.082 13.3604 42.2182C13.4168 42.3544 13.4994 42.4781 13.6036 42.5824C13.7078 42.6866 13.8315 42.7693 13.9677 42.8257C14.1038 42.8821 14.2498 42.9111 14.3972 42.9111H24.0285C24.1759 42.9111 24.3218 42.882 24.4579 42.8256C24.594 42.7691 24.7177 42.6865 24.8219 42.5822C24.9261 42.478 25.0087 42.3543 25.0651 42.2181C25.1214 42.0819 25.1504 41.936 25.1504 41.7887ZM32.5005 41.7887C32.5005 41.936 32.5295 42.0819 32.5858 42.2181C32.6422 42.3543 32.7248 42.478 32.829 42.5822C32.9332 42.6865 33.0568 42.7691 33.193 42.8256C33.3291 42.882 33.475 42.9111 33.6224 42.9111H37.2952C37.4437 42.9128 37.591 42.8851 37.7287 42.8294C37.8663 42.7738 37.9916 42.6914 38.0972 42.587C38.2028 42.4827 38.2866 42.3584 38.3438 42.2214C38.401 42.0844 38.4305 41.9374 38.4305 41.7889C38.4305 41.6404 38.401 41.4934 38.3438 41.3564C38.2866 41.2194 38.2028 41.0951 38.0972 40.9907C37.9916 40.8863 37.8663 40.8039 37.7287 40.7483C37.591 40.6927 37.4437 40.6649 37.2952 40.6666H33.6224C33.3249 40.6667 33.0395 40.785 32.8291 40.9954C32.6188 41.2058 32.5006 41.4911 32.5005 41.7887ZM26.3899 27.8557H30.2637C30.4122 27.8574 30.5595 27.8297 30.6972 27.774C30.8348 27.7184 30.9601 27.636 31.0657 27.5317C31.1713 27.4273 31.2551 27.303 31.3123 27.166C31.3695 27.029 31.399 26.882 31.399 26.7335C31.399 26.585 31.3695 26.438 31.3123 26.301C31.2551 26.164 31.1713 26.0397 31.0657 25.9353C30.9601 25.8309 30.8348 25.7486 30.6972 25.6929C30.5595 25.6373 30.4122 25.6095 30.2637 25.6113H26.3899C26.0923 25.6113 25.8068 25.7295 25.5964 25.94C25.3859 26.1504 25.2677 26.4359 25.2677 26.7335C25.2677 27.0311 25.3859 27.3166 25.5964 27.527C25.8068 27.7375 26.0923 27.8557 26.3899 27.8557ZM34.6027 27.8557H58.2402C58.3876 27.8557 58.5335 27.8267 58.6697 27.7703C58.8058 27.7139 58.9295 27.6312 59.0337 27.5269C59.1379 27.4227 59.2205 27.2989 59.2768 27.1628C59.3332 27.0266 59.3622 26.8806 59.3621 26.7333C59.3621 26.5859 59.3331 26.44 59.2768 26.3039C59.2204 26.1677 59.1378 26.044 59.0336 25.9399C58.9294 25.8357 58.8057 25.753 58.6696 25.6966C58.5335 25.6402 58.3876 25.6112 58.2402 25.6113H34.6027C34.3051 25.6113 34.0197 25.7295 33.8092 25.94C33.5987 26.1504 33.4805 26.4359 33.4805 26.7335C33.4805 27.0311 33.5987 27.3166 33.8092 27.527C34.0197 27.7375 34.3051 27.8557 34.6027 27.8557ZM54.6499 30.5481H45.0747C44.7771 30.5481 44.4917 30.6663 44.2812 30.8767C44.0708 31.0872 43.9526 31.3726 43.9526 31.6702C43.9526 31.9678 44.0708 32.2533 44.2812 32.4637C44.4917 32.6742 44.7771 32.7924 45.0747 32.7924H54.6499C54.9475 32.7924 55.2329 32.6742 55.4434 32.4637C55.6538 32.2533 55.772 31.9678 55.772 31.6702C55.772 31.3726 55.6538 31.0872 55.4434 30.8767C55.2329 30.6663 54.9475 30.5481 54.6499 30.5481ZM41.4845 30.5481H38.1931C38.0457 30.5481 37.8998 30.5771 37.7636 30.6335C37.6275 30.6899 37.5038 30.7726 37.3996 30.8769C37.2954 30.9811 37.2128 31.1048 37.1564 31.241C37.1001 31.3772 37.0711 31.5231 37.0712 31.6705C37.0712 31.8178 37.1002 31.9637 37.1566 32.0999C37.2129 32.236 37.2956 32.3597 37.3998 32.4638C37.5039 32.568 37.6276 32.6506 37.7637 32.707C37.8999 32.7634 38.0457 32.7924 38.1931 32.7924H41.4844C41.6317 32.7924 41.7776 32.7634 41.9137 32.707C42.0498 32.6506 42.1735 32.568 42.2777 32.4638C42.3819 32.3597 42.4645 32.236 42.5209 32.0999C42.5773 31.9637 42.6063 31.8178 42.6062 31.6705C42.6063 31.5231 42.5774 31.3772 42.521 31.241C42.4647 31.1048 42.382 30.9811 42.2779 30.8769C42.1737 30.7726 42.05 30.6899 41.9138 30.6335C41.7777 30.5771 41.6318 30.5481 41.4844 30.5481H41.4845ZM26.3899 32.7924H34.453C34.7506 32.7924 35.036 32.6742 35.2465 32.4637C35.4569 32.2533 35.5752 31.9678 35.5752 31.6702C35.5752 31.3726 35.4569 31.0872 35.2465 30.8767C35.036 30.6663 34.7506 30.5481 34.453 30.5481H26.3899C26.241 30.5456 26.0931 30.5729 25.9548 30.6282C25.8165 30.6835 25.6907 30.7657 25.5845 30.8702C25.4783 30.9746 25.394 31.0991 25.3365 31.2365C25.2789 31.3739 25.2493 31.5213 25.2493 31.6702C25.2493 31.8191 25.2789 31.9666 25.3365 32.1039C25.394 32.2413 25.4783 32.3658 25.5845 32.4703C25.6907 32.5747 25.8165 32.657 25.9548 32.7123C26.0931 32.7676 26.241 32.7948 26.3899 32.7924ZM24.0426 45.3595H16.4841C16.3367 45.3595 16.1908 45.3885 16.0547 45.4448C15.9185 45.5012 15.7948 45.5838 15.6905 45.688C15.5863 45.7922 15.5036 45.9158 15.4472 46.052C15.3908 46.1881 15.3617 46.334 15.3617 46.4814C15.3617 46.6288 15.3907 46.7747 15.4471 46.9108C15.5036 47.047 15.5863 47.1707 15.6905 47.2749C15.7947 47.3791 15.9184 47.4617 16.0546 47.5181C16.1908 47.5744 16.3367 47.6034 16.4841 47.6034H24.0426C24.3401 47.6033 24.6254 47.4851 24.8358 47.2747C25.0462 47.0643 25.1644 46.7789 25.1644 46.4814C25.1644 46.1839 25.0461 45.8986 24.8358 45.6882C24.6254 45.4778 24.3401 45.3596 24.0426 45.3595ZM13.0473 45.3595H7.23986C7.09253 45.3595 6.94664 45.3885 6.81052 45.4449C6.6744 45.5013 6.55072 45.5839 6.44655 45.6881C6.34237 45.7922 6.25973 45.9159 6.20336 46.052C6.14699 46.1882 6.11799 46.334 6.11801 46.4814C6.11797 46.6287 6.14696 46.7746 6.20332 46.9108C6.25968 47.0469 6.34231 47.1706 6.44649 47.2748C6.55067 47.379 6.67436 47.4616 6.81049 47.518C6.94662 47.5744 7.09252 47.6034 7.23986 47.6034H13.047C13.1943 47.6034 13.3402 47.5744 13.4763 47.518C13.6125 47.4616 13.7361 47.379 13.8403 47.2748C13.9445 47.1706 14.0271 47.0469 14.0835 46.9108C14.1399 46.7746 14.1689 46.6287 14.1688 46.4814C14.1688 46.334 14.1398 46.1882 14.0835 46.052C14.0271 45.9159 13.9445 45.7922 13.8403 45.6881C13.7361 45.5839 13.6124 45.5013 13.4763 45.4449C13.3402 45.3885 13.1943 45.3595 13.047 45.3595H13.0473ZM37.7445 45.3595H27.8701C27.7228 45.3595 27.5769 45.3885 27.4408 45.4449C27.3046 45.5013 27.181 45.5839 27.0768 45.6881C26.9726 45.7922 26.89 45.9159 26.8336 46.052C26.7772 46.1882 26.7482 46.334 26.7482 46.4814C26.7482 46.6287 26.7772 46.7746 26.8336 46.9108C26.8899 47.0469 26.9725 47.1706 27.0767 47.2748C27.1809 47.379 27.3046 47.4616 27.4407 47.518C27.5769 47.5744 27.7228 47.6034 27.8701 47.6034H37.7443C38.0418 47.6033 38.3272 47.4851 38.5375 47.2747C38.7479 47.0643 38.8661 46.7789 38.8662 46.4814C38.8661 46.1839 38.7479 45.8986 38.5375 45.6882C38.3271 45.4778 38.0418 45.3596 37.7443 45.3595H37.7445ZM51.0976 39.5957H45.6982C45.4006 39.5957 45.1152 39.7139 44.9047 39.9244C44.6943 40.1348 44.5761 40.4202 44.5761 40.7179C44.5761 41.0155 44.6943 41.3009 44.9047 41.5113C45.1152 41.7218 45.4006 41.84 45.6982 41.84H51.0976C51.245 41.84 51.3909 41.811 51.5271 41.7546C51.6632 41.6982 51.787 41.6155 51.8912 41.5113C51.9954 41.407 52.078 41.2833 52.1343 41.1471C52.1907 41.0109 52.2197 40.8649 52.2196 40.7176C52.2196 40.5702 52.1906 40.4243 52.1342 40.2882C52.0778 40.1521 51.9952 40.0284 51.891 39.9242C51.7868 39.82 51.6631 39.7374 51.527 39.681C51.3908 39.6247 51.2449 39.5957 51.0976 39.5957ZM60.467 41.84H68.0891C68.238 41.8424 68.3859 41.8152 68.5242 41.7599C68.6625 41.7046 68.7884 41.6223 68.8945 41.5179C69.0007 41.4135 69.085 41.2889 69.1426 41.1516C69.2001 41.0142 69.2298 40.8668 69.2298 40.7179C69.2298 40.5689 69.2001 40.4215 69.1426 40.2841C69.085 40.1468 69.0007 40.0223 68.8945 39.9178C68.7884 39.8134 68.6625 39.7311 68.5242 39.6758C68.3859 39.6205 68.238 39.5933 68.0891 39.5957H60.4672C60.3198 39.5957 60.1739 39.6247 60.0378 39.6811C59.9017 39.7374 59.778 39.8201 59.6738 39.9242C59.5697 40.0284 59.487 40.1521 59.4307 40.2882C59.3743 40.4243 59.3453 40.5702 59.3453 40.7176C59.3453 40.8649 59.3742 41.0108 59.4306 41.147C59.487 41.2832 59.5696 41.4069 59.6738 41.5111C59.7779 41.6154 59.9016 41.698 60.0378 41.7545C60.1739 41.8109 60.3198 41.84 60.4672 41.84H60.467ZM56.6557 39.5957H54.9091C54.6115 39.5957 54.326 39.7139 54.1156 39.9244C53.9052 40.1348 53.7869 40.4202 53.7869 40.7179C53.7869 41.0155 53.9052 41.3009 54.1156 41.5113C54.326 41.7218 54.6115 41.84 54.9091 41.84H56.6557C56.803 41.84 56.949 41.811 57.0851 41.7546C57.2213 41.6981 57.345 41.6155 57.4491 41.5112C57.5533 41.407 57.6359 41.2832 57.6923 41.1471C57.7486 41.0109 57.7776 40.8649 57.7775 40.7176C57.7775 40.5702 57.7485 40.4243 57.6922 40.2882C57.6358 40.1521 57.5532 40.0284 57.449 39.9242C57.3448 39.8201 57.2211 39.7374 57.085 39.6811C56.9489 39.6247 56.803 39.5957 56.6557 39.5957ZM45.6982 54.0674H51.0976C51.2449 54.0675 51.3909 54.0385 51.5271 53.9821C51.6632 53.9258 51.7869 53.8431 51.8911 53.7389C51.9953 53.6347 52.078 53.511 52.1343 53.3749C52.1907 53.2387 52.2197 53.0928 52.2196 52.9454C52.2196 52.798 52.1906 52.6521 52.1342 52.516C52.0778 52.3799 51.9952 52.2562 51.891 52.152C51.7868 52.0478 51.6631 51.9652 51.527 51.9088C51.3908 51.8525 51.2449 51.8235 51.0976 51.8235H45.6982C45.4007 51.8236 45.1154 51.9418 44.905 52.1522C44.6947 52.3626 44.5765 52.6479 44.5764 52.9454C44.5763 53.0927 44.6053 53.2386 44.6617 53.3748C44.718 53.5109 44.8007 53.6346 44.9049 53.7388C45.009 53.843 45.1327 53.9256 45.2689 53.982C45.405 54.0384 45.5509 54.0674 45.6982 54.0674ZM60.467 54.0674H68.0891C68.3867 54.0674 68.672 53.9492 68.8824 53.7388C69.0928 53.5284 69.211 53.243 69.211 52.9455C69.211 52.6479 69.0928 52.3625 68.8824 52.1521C68.672 51.9417 68.3867 51.8235 68.0891 51.8235H60.4672C60.3198 51.8235 60.1739 51.8525 60.0378 51.9089C59.9017 51.9653 59.778 52.0479 59.6738 52.1521C59.5697 52.2562 59.487 52.3799 59.4307 52.516C59.3743 52.6522 59.3453 52.7981 59.3453 52.9454C59.3453 53.0927 59.3743 53.2386 59.4306 53.3748C59.487 53.5109 59.5696 53.6346 59.6738 53.7388C59.778 53.843 59.9017 53.9256 60.0378 53.982C60.1739 54.0384 60.3198 54.0674 60.4672 54.0674H60.467ZM54.9091 54.0674H56.6557C56.9532 54.0674 57.2386 53.9492 57.449 53.7388C57.6594 53.5284 57.7776 53.243 57.7776 52.9455C57.7776 52.6479 57.6594 52.3625 57.449 52.1521C57.2386 51.9417 56.9532 51.8235 56.6557 51.8235H54.9091C54.7617 51.8235 54.6158 51.8525 54.4797 51.9088C54.3436 51.9652 54.2199 52.0478 54.1157 52.152C54.0115 52.2562 53.9288 52.3799 53.8724 52.516C53.8161 52.6521 53.7871 52.798 53.7871 52.9454C53.787 53.0928 53.816 53.2387 53.8723 53.3749C53.9287 53.511 54.0113 53.6347 54.1155 53.7389C54.2197 53.8431 54.3434 53.9258 54.4796 53.9821C54.6158 54.0385 54.7617 54.0675 54.9091 54.0674ZM51.0976 64.0514H45.6982C45.0788 64.0514 44.5764 64.5539 44.5764 65.1732C44.5764 65.7925 45.0788 66.2952 45.6982 66.2952H51.0976C51.7177 66.2952 52.2196 65.7927 52.2196 65.1732C52.2196 64.5537 51.7177 64.0514 51.0976 64.0514ZM68.0891 64.0514H60.4672C59.8472 64.0514 59.3453 64.5539 59.3453 65.1732C59.3453 65.7925 59.8471 66.2952 60.4672 66.2952H68.0893C68.7092 66.2952 69.2117 65.7927 69.2117 65.1732C69.2117 64.5537 68.7093 64.0514 68.0893 64.0514H68.0891ZM56.6557 64.0514H54.9091C54.289 64.0514 53.7865 64.5539 53.7865 65.1732C53.7865 65.7925 54.289 66.2952 54.9091 66.2952H56.6557C57.2756 66.2952 57.7775 65.7927 57.7775 65.1732C57.7775 64.5537 57.2756 64.0514 56.6557 64.0514Z" fill="#0E556C" stroke="white" stroke-width="4" mask="url(#path-1-inside-1_21_3974)"/>
<mask id="path-2-inside-2_21_3974" fill="white">
<path d="M72.2293 3.33301H5.43845C2.71571 3.33301 0.5 5.54812 0.5 8.27146V62.5625C0.5 65.2853 2.71571 67.5004 5.43845 67.5004H9.66114C9.80847 67.5004 9.95436 67.4714 10.0905 67.415C10.2266 67.3586 10.3503 67.276 10.4545 67.1718C10.5586 67.0676 10.6413 66.944 10.6976 66.8078C10.754 66.6717 10.783 66.5258 10.783 66.3785C10.7829 66.081 10.6647 65.7957 10.4543 65.5853C10.244 65.375 9.95865 65.2567 9.66114 65.2566H5.43845C3.95287 65.2566 2.74431 64.0482 2.74431 62.5625V58.3058H43.6229V60.2396H42.7333C41.5161 60.2396 40.5264 61.2294 40.5264 62.4465V65.2565H16.483C16.1855 65.2566 15.9002 65.3748 15.6898 65.5852C15.4795 65.7955 15.3612 66.0808 15.3612 66.3784C15.3611 66.5257 15.3902 66.6716 15.4465 66.8077C15.5029 66.9438 15.5855 67.0675 15.6897 67.1717C15.7939 67.2759 15.9176 67.3585 16.0537 67.4149C16.1898 67.4712 16.3357 67.5002 16.483 67.5002H27.2714V71.5245H23.8835C21.6233 71.5245 19.7851 73.3636 19.7851 75.6232V78.0471C19.7851 79.0783 20.6237 79.917 21.6549 79.917H55.9268C56.9581 79.917 57.7969 79.0783 57.7969 78.0471V75.6234C57.7969 73.3638 55.9584 71.5247 53.6984 71.5247H50.3105V70.1063H71.0536C72.2703 70.1063 73.2599 69.1165 73.2599 67.8993V67.3711C75.447 66.8635 77.0819 64.901 77.0819 62.5625L77.1667 8.27101C77.1673 5.54812 74.9521 3.33301 72.2293 3.33301ZM42.7708 55.6346V50.2562H71.0162V55.6346H42.7708ZM45.8668 48.0119V45.6511H67.9196V48.0119H45.8668ZM67.9196 57.8783V60.2397H45.867V57.8783H67.9196ZM29.5153 67.5005H40.5264V67.9C40.5264 69.1167 41.5162 70.1065 42.7333 70.1065H48.0666V71.5248H29.5153V67.5005ZM53.6988 73.7693C54.7214 73.7693 55.5531 74.6009 55.5531 75.6235V77.6735H22.0287V75.6235C22.0287 74.6009 22.8611 73.7693 23.8835 73.7693H53.6988ZM71.0162 67.862H42.7708V62.4842H71.0162V67.862ZM74.838 62.5627C74.838 63.6495 74.19 64.586 73.2605 65.0111V62.4462C73.2605 61.2295 72.2703 60.2397 71.0536 60.2397H70.1639V58.306H74.838V62.5627ZM74.838 56.0624H73.2238C73.2465 55.9354 73.2605 50.2189 73.2605 50.2189C73.2605 49.0017 72.2703 48.0121 71.0536 48.0121H70.1639V45.6512H71.0536C72.2703 45.6512 73.2605 44.661 73.2605 43.4444V37.9911C73.2605 36.7745 72.2703 35.7842 71.0536 35.7842H64.716C64.5686 35.7842 64.4227 35.8132 64.2865 35.8696C64.1503 35.926 64.0266 36.0087 63.9224 36.113C63.8182 36.2172 63.7356 36.341 63.6792 36.4771C63.6229 36.6133 63.5939 36.7593 63.594 36.9067C63.594 37.054 63.623 37.1999 63.6794 37.3361C63.7358 37.4722 63.8184 37.5959 63.9226 37.7001C64.0268 37.8042 64.1505 37.8869 64.2866 37.9432C64.4228 37.9996 64.5687 38.0286 64.716 38.0285H71.0162V43.4069H42.7708V38.0285H57.7344C57.8817 38.0286 58.0276 37.9996 58.1637 37.9432C58.2998 37.8868 58.4235 37.8042 58.5277 37.7C58.6319 37.5958 58.7145 37.4721 58.7709 37.336C58.8272 37.1999 58.8562 37.054 58.8562 36.9067C58.8563 36.7593 58.8273 36.6134 58.771 36.4772C58.7146 36.341 58.632 36.2173 58.5278 36.113C58.4237 36.0088 58.3 35.9261 58.1638 35.8697C58.0277 35.8133 57.8817 35.7842 57.7344 35.7842H42.7333C41.5161 35.7842 40.5264 36.7745 40.5264 37.9911V43.4444C40.5264 44.661 41.5162 45.6512 42.7333 45.6512H43.6229V48.0121H42.7333C41.5161 48.0121 40.5264 49.0023 40.5264 50.2189C40.5264 50.2189 40.5404 55.9354 40.5633 56.0624H2.74431V18.5961H74.838V56.0624ZM74.838 16.3518H2.82697V8.27101C2.82697 6.78588 4.03538 5.57732 5.52111 5.57732H72.1441C73.6298 5.57732 74.8382 6.78573 74.8382 8.27146L74.838 16.3518Z"/>
</mask>
<path d="M72.2293 3.33301H5.43845C2.71571 3.33301 0.5 5.54812 0.5 8.27146V62.5625C0.5 65.2853 2.71571 67.5004 5.43845 67.5004H9.66114C9.80847 67.5004 9.95436 67.4714 10.0905 67.415C10.2266 67.3586 10.3503 67.276 10.4545 67.1718C10.5586 67.0676 10.6413 66.944 10.6976 66.8078C10.754 66.6717 10.783 66.5258 10.783 66.3785C10.7829 66.081 10.6647 65.7957 10.4543 65.5853C10.244 65.375 9.95865 65.2567 9.66114 65.2566H5.43845C3.95287 65.2566 2.74431 64.0482 2.74431 62.5625V58.3058H43.6229V60.2396H42.7333C41.5161 60.2396 40.5264 61.2294 40.5264 62.4465V65.2565H16.483C16.1855 65.2566 15.9002 65.3748 15.6898 65.5852C15.4795 65.7955 15.3612 66.0808 15.3612 66.3784C15.3611 66.5257 15.3902 66.6716 15.4465 66.8077C15.5029 66.9438 15.5855 67.0675 15.6897 67.1717C15.7939 67.2759 15.9176 67.3585 16.0537 67.4149C16.1898 67.4712 16.3357 67.5002 16.483 67.5002H27.2714V71.5245H23.8835C21.6233 71.5245 19.7851 73.3636 19.7851 75.6232V78.0471C19.7851 79.0783 20.6237 79.917 21.6549 79.917H55.9268C56.9581 79.917 57.7969 79.0783 57.7969 78.0471V75.6234C57.7969 73.3638 55.9584 71.5247 53.6984 71.5247H50.3105V70.1063H71.0536C72.2703 70.1063 73.2599 69.1165 73.2599 67.8993V67.3711C75.447 66.8635 77.0819 64.901 77.0819 62.5625L77.1667 8.27101C77.1673 5.54812 74.9521 3.33301 72.2293 3.33301ZM42.7708 55.6346V50.2562H71.0162V55.6346H42.7708ZM45.8668 48.0119V45.6511H67.9196V48.0119H45.8668ZM67.9196 57.8783V60.2397H45.867V57.8783H67.9196ZM29.5153 67.5005H40.5264V67.9C40.5264 69.1167 41.5162 70.1065 42.7333 70.1065H48.0666V71.5248H29.5153V67.5005ZM53.6988 73.7693C54.7214 73.7693 55.5531 74.6009 55.5531 75.6235V77.6735H22.0287V75.6235C22.0287 74.6009 22.8611 73.7693 23.8835 73.7693H53.6988ZM71.0162 67.862H42.7708V62.4842H71.0162V67.862ZM74.838 62.5627C74.838 63.6495 74.19 64.586 73.2605 65.0111V62.4462C73.2605 61.2295 72.2703 60.2397 71.0536 60.2397H70.1639V58.306H74.838V62.5627ZM74.838 56.0624H73.2238C73.2465 55.9354 73.2605 50.2189 73.2605 50.2189C73.2605 49.0017 72.2703 48.0121 71.0536 48.0121H70.1639V45.6512H71.0536C72.2703 45.6512 73.2605 44.661 73.2605 43.4444V37.9911C73.2605 36.7745 72.2703 35.7842 71.0536 35.7842H64.716C64.5686 35.7842 64.4227 35.8132 64.2865 35.8696C64.1503 35.926 64.0266 36.0087 63.9224 36.113C63.8182 36.2172 63.7356 36.341 63.6792 36.4771C63.6229 36.6133 63.5939 36.7593 63.594 36.9067C63.594 37.054 63.623 37.1999 63.6794 37.3361C63.7358 37.4722 63.8184 37.5959 63.9226 37.7001C64.0268 37.8042 64.1505 37.8869 64.2866 37.9432C64.4228 37.9996 64.5687 38.0286 64.716 38.0285H71.0162V43.4069H42.7708V38.0285H57.7344C57.8817 38.0286 58.0276 37.9996 58.1637 37.9432C58.2998 37.8868 58.4235 37.8042 58.5277 37.7C58.6319 37.5958 58.7145 37.4721 58.7709 37.336C58.8272 37.1999 58.8562 37.054 58.8562 36.9067C58.8563 36.7593 58.8273 36.6134 58.771 36.4772C58.7146 36.341 58.632 36.2173 58.5278 36.113C58.4237 36.0088 58.3 35.9261 58.1638 35.8697C58.0277 35.8133 57.8817 35.7842 57.7344 35.7842H42.7333C41.5161 35.7842 40.5264 36.7745 40.5264 37.9911V43.4444C40.5264 44.661 41.5162 45.6512 42.7333 45.6512H43.6229V48.0121H42.7333C41.5161 48.0121 40.5264 49.0023 40.5264 50.2189C40.5264 50.2189 40.5404 55.9354 40.5633 56.0624H2.74431V18.5961H74.838V56.0624ZM74.838 16.3518H2.82697V8.27101C2.82697 6.78588 4.03538 5.57732 5.52111 5.57732H72.1441C73.6298 5.57732 74.8382 6.78573 74.8382 8.27146L74.838 16.3518Z" fill="#0E556C" stroke="white" stroke-width="4" mask="url(#path-2-inside-2_21_3974)"/>
<path d="M8.77457 12.9809L8.77543 12.9809C9.31843 12.9805 9.83906 12.7645 10.223 12.3806C10.607 11.9966 10.8229 11.476 10.8233 10.933V10.9321C10.8233 9.80238 9.90567 8.88335 8.77457 8.88335C7.64429 8.88335 6.72579 9.80185 6.72579 10.9321C6.72579 12.0634 7.64466 12.9809 8.77457 12.9809ZM17.1574 12.9809H17.1582C18.288 12.9809 19.207 12.0632 19.207 10.9321C19.207 9.8021 18.2886 8.88335 17.1582 8.88335C16.027 8.88335 15.1094 9.80222 15.1094 10.9321V10.933C15.1099 11.476 15.3258 11.9966 15.7098 12.3806C16.0937 12.7645 16.6144 12.9805 17.1574 12.9809ZM25.5413 12.9809L25.5421 12.9809C26.0851 12.9805 26.6058 12.7645 26.9897 12.3806C27.3737 11.9966 27.5896 11.476 27.5901 10.933V10.9321C27.5901 9.80247 26.6726 8.88335 25.5413 8.88335C24.4112 8.88335 23.4925 9.80176 23.4925 10.9321C23.4925 12.0635 24.4116 12.9809 25.5413 12.9809ZM6.48193 10.9321C6.48193 9.66888 7.5112 8.63965 8.77457 8.63965C10.0381 8.63965 11.0677 9.66906 11.0677 10.9321C11.0677 12.1954 10.0379 13.2252 8.77457 13.2252C7.51143 13.2252 6.48193 12.1956 6.48193 10.9321ZM14.8651 10.9321C14.8651 9.66906 15.8947 8.63965 17.1582 8.63965C18.4211 8.63965 19.4507 9.66894 19.4507 10.9321C19.4507 12.1957 18.4213 13.2252 17.1582 13.2252C15.8949 13.2252 14.8651 12.1954 14.8651 10.9321ZM23.2488 10.9321C23.2488 9.66882 24.278 8.63965 25.5413 8.63965C26.8049 8.63965 27.8345 9.66912 27.8345 10.9321C27.8345 12.1954 26.8046 13.2252 25.5413 13.2252C24.2782 13.2252 23.2488 12.1957 23.2488 10.9321Z" fill="#0E556C" stroke="white" stroke-width="2"/>
</g>
<defs>
<clipPath id="clip0_21_3974">
<rect width="80" height="80" fill="white" transform="translate(0.5)"/>
</clipPath>
</defs>
</svg>
