<svg width="48" height="48" viewBox="0 0 48 48" fill="none" xmlns="http://www.w3.org/2000/svg">
<path d="M15.3774 11.3523C16.3711 11.1198 16.9881 10.1258 16.7556 9.13211C16.5231 8.13845 15.5291 7.52141 14.5354 7.75393C13.5417 7.98644 12.9247 8.98045 13.1572 9.97411C13.3897 10.9678 14.3837 11.5848 15.3774 11.3523Z" stroke="#D2D3D5" stroke-miterlimit="22.9256" stroke-linecap="round" stroke-linejoin="round"/>
<path d="M23.6924 11.3523C24.6861 11.1198 25.3031 10.1258 25.0706 9.13211C24.8381 8.13845 23.8441 7.52141 22.8504 7.75393C21.8567 7.98644 21.2397 8.98045 21.4722 9.97411C21.7047 10.9678 22.6987 11.5848 23.6924 11.3523Z" stroke="#D2D3D5" stroke-miterlimit="22.9256" stroke-linecap="round" stroke-linejoin="round"/>
<path d="M32.0074 11.3523C33.0011 11.1198 33.6181 10.1258 33.3856 9.13211C33.1531 8.13845 32.1591 7.52141 31.1654 7.75393C30.1718 7.98644 29.5547 8.98045 29.7872 9.97411C30.0197 10.9678 31.0138 11.5848 32.0074 11.3523Z" stroke="#D2D3D5" stroke-miterlimit="22.9256" stroke-linecap="round" stroke-linejoin="round"/>
<path d="M31.5212 38.0131C29.9949 34.9998 26.8648 32.9215 23.2724 32.9215C19.6809 32.9215 16.5514 34.9987 15.0248 38.0108" stroke="#D2D3D5" stroke-miterlimit="2.6131" stroke-linecap="round" stroke-linejoin="round"/>
<path d="M18.8721 2H38.6276C40.3451 2 41.7502 3.40514 41.7502 5.12256V13.9683C41.7502 15.6858 40.3451 17.0909 38.6276 17.0909V20.0015L34.3312 17.0909H25.5176L23.069 20.0015L20.6203 17.0909H12.2136L7.91717 20.0015V17.0909C6.19975 17.0909 4.79461 15.6858 4.79461 13.9683V5.12256C4.7947 3.40514 6.19985 2 7.91727 2H10.5572" stroke="#D2D3D5" stroke-miterlimit="22.9256" stroke-linecap="round" stroke-linejoin="round"/>
<path d="M9.69244 28.9375C10.0428 26.4362 8.29906 24.1245 5.79773 23.7741C3.29641 23.4238 0.984681 25.1675 0.634345 27.6688C0.284008 30.1702 2.02773 32.4819 4.52905 32.8322C7.03038 33.1826 9.3421 31.4388 9.69244 28.9375Z" stroke="#D2D3D5" stroke-miterlimit="22.9256" stroke-linecap="round" stroke-linejoin="round"/>
<path d="M9.78371 42.8359V46.9934M36.7613 42.8359V46.9934M5.16426 37.7959V40.0642C5.16426 41.3346 6.20363 42.374 7.47398 42.374H39.071C40.3414 42.374 41.3807 41.3346 41.3807 40.0642V37.7959M13.9569 42.374C15.2201 42.3655 16.2508 41.3294 16.2508 40.0643C16.2508 38.794 15.2113 37.7546 13.9411 37.7546H9.78361V37.5871C9.78361 35.0466 7.70486 32.9677 5.16416 32.9677C2.62347 32.9677 0.544715 35.0466 0.544715 37.5871V47.4554H46.0001V37.5871C46.0001 35.0464 43.9213 32.9677 41.3807 32.9677C38.84 32.9677 36.7612 35.0468 36.7612 37.5871V37.7546H32.6037C31.3323 37.7546 30.294 38.7952 30.294 40.0643C30.294 41.3241 31.316 42.3566 32.5718 42.3739" stroke="#D2D3D5" stroke-miterlimit="22.9256" stroke-linecap="round" stroke-linejoin="round"/>
<path d="M41.3807 32.8753C43.9064 32.8753 45.9539 30.8278 45.9539 28.302C45.9539 25.7763 43.9064 23.7288 41.3807 23.7288C38.8549 23.7288 36.8074 25.7763 36.8074 28.302C36.8074 30.8278 38.8549 32.8753 41.3807 32.8753Z" stroke="#D2D3D5" stroke-miterlimit="22.9256" stroke-linecap="round" stroke-linejoin="round"/>
<path d="M27.4564 30.0889C28.4181 27.7534 27.3045 25.0805 24.969 24.1188C22.6336 23.157 19.9607 24.2706 18.9989 26.6061C18.0372 28.9416 19.1508 31.6145 21.4862 32.5762C23.8217 33.538 26.4946 32.4244 27.4564 30.0889Z" stroke="#D2D3D5" stroke-miterlimit="22.9256" stroke-linecap="round" stroke-linejoin="round"/>
</svg>
