<svg width="48" height="48" viewBox="0 0 48 48" fill="none" xmlns="http://www.w3.org/2000/svg">
<g clip-path="url(#clip0_1445_3550)">
<path d="M25.0014 37.8812C17.8967 37.8812 12.0838 32.0683 12.0838 24.9636C12.0838 17.8589 17.8967 12.046 25.0014 12.046C32.1061 12.046 37.919 17.8589 37.919 24.9636C37.919 32.0683 32.1061 37.8812 25.0014 37.8812ZM25.0014 13.4813C18.6861 13.4813 13.5191 18.6483 13.5191 24.9636C13.5191 31.2789 18.6861 36.4459 25.0014 36.4459C31.3166 36.4459 36.4837 31.2789 36.4837 24.9636C36.4837 18.6483 31.3166 13.4813 25.0014 13.4813Z" fill="#D2D3D5"/>
<path d="M25.0017 37.8812C21.1264 37.8812 18.1123 32.2118 18.1123 24.9636C18.1123 17.7154 21.1264 12.046 25.0017 12.046C28.8769 12.046 31.891 17.7154 31.891 24.9636C31.891 32.2118 28.8769 37.8812 25.0017 37.8812ZM25.0017 13.4813C22.0593 13.4813 19.5476 18.7201 19.5476 24.9636C19.5476 31.2071 22.0593 36.4459 25.0017 36.4459C27.944 36.4459 30.4557 31.2071 30.4557 24.9636C30.4557 18.7201 27.944 13.4813 25.0017 13.4813Z" fill="#D2D3D5"/>
<path d="M25.0014 31.853C17.7532 31.853 12.0838 28.8389 12.0838 24.9636C12.0838 21.0883 17.7532 18.0742 25.0014 18.0742C32.2496 18.0742 37.919 21.0883 37.919 24.9636C37.919 28.8389 32.2496 31.853 25.0014 31.853ZM25.0014 19.5095C18.7579 19.5095 13.5191 22.0213 13.5191 24.9636C13.5191 27.9059 18.7579 30.4177 25.0014 30.4177C31.2449 30.4177 36.4837 27.9059 36.4837 24.9636C36.4837 22.0213 31.2449 19.5095 25.0014 19.5095Z" fill="#D2D3D5"/>
<path d="M25.001 37.8812C24.5704 37.8812 24.2834 37.5941 24.2834 37.1635V12.7637C24.2834 12.3331 24.5704 12.046 25.001 12.046C25.4316 12.046 25.7187 12.3331 25.7187 12.7637V37.1635C25.7187 37.5941 25.4316 37.8812 25.001 37.8812Z" fill="#D2D3D5"/>
<path d="M37.2019 25.6813H12.802C12.3715 25.6813 12.0844 25.3942 12.0844 24.9636C12.0844 24.5331 12.3715 24.246 12.802 24.246H37.2019C37.6325 24.246 37.9196 24.5331 37.9196 24.9636C37.9196 25.3942 37.6325 25.6813 37.2019 25.6813ZM9.57265 16.926C8.71148 16.926 7.77855 16.7825 6.91737 16.4237C5.0515 15.706 3.54445 14.3425 2.75504 12.5484C1.89387 10.7543 1.8221 8.67314 2.53975 6.80727C3.25739 4.94139 4.62091 3.50611 6.41502 2.7167C8.20913 1.85553 10.2185 1.78376 12.0844 2.42964C13.9503 3.14728 15.4573 4.51081 16.2467 6.30491C17.1079 8.09902 17.1797 10.1084 16.462 12.0461C15.7444 13.9119 14.3809 15.419 12.5868 16.2802C11.6538 16.7107 10.5774 16.926 9.57265 16.926ZM9.57265 3.43434C8.71148 3.43434 7.85031 3.64963 7.0609 4.00846C5.55385 4.65433 4.40562 5.80256 3.83151 7.30962C3.25739 8.81667 3.32916 10.4672 4.0468 11.9743C4.69268 13.4096 5.91267 14.5578 7.41972 15.1319C8.92677 15.706 10.5774 15.6343 12.0126 14.9884C13.4479 14.3425 14.5962 13.1225 15.1703 11.6155C15.7444 10.1084 15.6726 8.45785 14.955 7.02256C14.2373 5.51551 13.0891 4.43904 11.5821 3.86493C10.9362 3.57787 10.2185 3.43434 9.57265 3.43434Z" fill="#D2D3D5"/>
<path d="M9.57323 12.692C7.63559 12.692 6.12854 10.4673 6.12854 8.60143C6.12854 6.73555 7.70736 5.15674 9.57323 5.15674C11.4391 5.15674 13.0179 6.73555 13.0179 8.60143C13.0179 10.4673 11.5109 12.692 9.57323 12.692ZM9.57323 6.59203C8.49676 6.59203 7.56383 7.52496 7.56383 8.60143C7.56383 9.74966 8.56853 11.2567 9.57323 11.2567C10.5779 11.2567 11.5826 9.74966 11.5826 8.60143C11.5826 7.52496 10.6497 6.59203 9.57323 6.59203Z" fill="#D2D3D5"/>
<path d="M13.4475 15.5625C13.304 15.5625 13.2322 15.5625 13.0887 15.4907L11.8687 14.8448L11.2228 14.486C10.5052 14.1272 10.0746 13.3378 10.0746 12.6201V11.6154C10.0746 11.1849 10.3617 10.8978 10.7923 10.8978C11.2228 10.8978 11.5099 11.1849 11.5099 11.6154V12.6201C11.5099 12.9072 11.6534 13.1225 11.9405 13.266L12.5146 13.6248L13.6628 14.2707C14.0217 14.486 14.1652 14.9166 13.9499 15.2754C13.9499 15.419 13.7346 15.5625 13.4475 15.5625ZM5.55346 15.4907C5.2664 15.4907 5.05111 15.3472 4.90758 15.1319C4.69229 14.7731 4.83582 14.3425 5.19464 14.1272L7.06051 13.1225C7.41933 12.9072 7.4911 12.6201 7.4911 12.4766V11.4719C7.4911 11.0413 7.77816 10.7543 8.20874 10.7543C8.63933 10.7543 8.92639 11.0413 8.92639 11.4719V12.4766C8.92639 13.266 8.4958 13.9837 7.77816 14.4143L5.91228 15.419C5.76875 15.4907 5.69699 15.4907 5.55346 15.4907Z" fill="#D2D3D5"/>
<path d="M9.57265 16.926C8.71148 16.926 7.77855 16.7825 6.91737 16.4237C5.0515 15.706 3.54445 14.3425 2.75504 12.5484C1.89387 10.7543 1.8221 8.67314 2.53975 6.80727C3.25739 4.94139 4.62091 3.50611 6.41502 2.7167C8.20913 1.85553 10.2185 1.78376 12.0844 2.42964C13.9503 3.14728 15.4573 4.51081 16.2467 6.30492C17.1079 8.09902 17.1797 10.1084 16.462 12.0461C15.7444 13.9119 14.3809 15.419 12.5868 16.2802C11.6538 16.7107 10.5774 16.926 9.57265 16.926ZM9.57265 3.43434C8.71148 3.43434 7.85031 3.64963 7.0609 4.00846C5.55385 4.65434 4.40562 5.80256 3.83151 7.30962C3.25739 8.81667 3.32916 10.4672 4.0468 11.9743C4.69268 13.4096 5.91267 14.5578 7.41972 15.1319C8.92677 15.706 10.5774 15.6343 12.0126 14.9884C13.4479 14.3425 14.5962 13.1225 15.1703 11.6155C15.7444 10.1084 15.6726 8.45785 14.955 7.02256C14.2373 5.51551 13.0891 4.43904 11.5821 3.86493C10.9362 3.57787 10.2185 3.43434 9.57265 3.43434Z" fill="#D2D3D5"/>
<path d="M9.57323 12.692C7.63559 12.692 6.12854 10.4673 6.12854 8.60143C6.12854 6.73555 7.70736 5.15674 9.57323 5.15674C11.4391 5.15674 13.0179 6.73555 13.0179 8.60143C13.0179 10.4673 11.5109 12.692 9.57323 12.692ZM9.57323 6.59203C8.49676 6.59203 7.56383 7.52496 7.56383 8.60143C7.56383 9.74966 8.56853 11.2567 9.57323 11.2567C10.5779 11.2567 11.5826 9.74966 11.5826 8.60143C11.5826 7.52496 10.6497 6.59203 9.57323 6.59203Z" fill="#D2D3D5"/>
<path d="M13.4475 15.5625C13.304 15.5625 13.2322 15.5625 13.0887 15.4907L11.8687 14.8449L11.2228 14.486C10.5052 14.1272 10.0746 13.3378 10.0746 12.6202V11.6155C10.0746 11.1849 10.3617 10.8978 10.7923 10.8978C11.2228 10.8978 11.5099 11.1849 11.5099 11.6155V12.6202C11.5099 12.9072 11.6534 13.1225 11.9405 13.266L12.5146 13.6249L13.6628 14.2707C14.0217 14.486 14.1652 14.9166 13.9499 15.2754C13.9499 15.419 13.7346 15.5625 13.4475 15.5625ZM5.55346 15.4907C5.2664 15.4907 5.05111 15.3472 4.90758 15.1319C4.69229 14.7731 4.83582 14.3425 5.19464 14.1272L7.06051 13.1225C7.41933 12.9072 7.4911 12.6202 7.4911 12.4766V11.4719C7.4911 11.0413 7.77816 10.7543 8.20874 10.7543C8.63933 10.7543 8.92639 11.0413 8.92639 11.4719V12.4766C8.92639 13.266 8.4958 13.9837 7.77816 14.4143L5.91228 15.419C5.76875 15.4907 5.69699 15.4907 5.55346 15.4907ZM40.5027 16.9978C39.6415 16.9978 38.7804 16.8543 37.9192 16.4954C36.0533 15.7778 34.5463 14.4143 33.6851 12.6202C32.0345 8.81665 33.6851 4.36726 37.4168 2.71668C39.2827 1.85551 41.3639 1.85551 43.2297 2.57315C45.0239 3.2908 46.4591 4.65432 47.2485 6.37666C48.1097 8.17077 48.1815 10.1802 47.4638 12.046C46.7462 13.9119 45.3827 15.419 43.5886 16.2801C42.5839 16.7825 41.5792 16.9978 40.5027 16.9978ZM40.5745 3.50609C39.7133 3.50609 38.8521 3.72138 37.9909 4.0802C34.9768 5.37196 33.6133 8.96018 34.9768 12.046C36.4121 15.0602 40.0003 16.4237 43.0145 14.9884C46.0286 13.5531 47.3921 9.96488 45.9568 6.95078C45.3109 5.51549 44.1627 4.43903 42.7274 3.86491C42.0098 3.57785 41.2921 3.50609 40.5745 3.50609Z" fill="#D2D3D5"/>
<path d="M40.5752 12.692C38.6376 12.692 37.1305 10.4673 37.1305 8.60143C37.1305 6.73555 38.7093 5.15674 40.5752 5.15674C42.4411 5.15674 44.0199 6.73555 44.0199 8.60143C44.0199 10.4673 42.5129 12.692 40.5752 12.692ZM40.5752 6.59203C39.4987 6.59203 38.5658 7.52496 38.5658 8.60143C38.5658 9.74966 39.5705 11.2567 40.5752 11.2567C41.5799 11.2567 42.5846 9.74966 42.5846 8.60143C42.5846 7.52496 41.6517 6.59203 40.5752 6.59203Z" fill="#D2D3D5"/>
<path d="M44.4501 15.5625C44.3065 15.5625 44.2348 15.5625 44.0912 15.4907L42.8713 14.8448L42.2254 14.486C41.5077 14.1272 41.0771 13.3378 41.0771 12.6201V11.6154C41.0771 11.1849 41.3642 10.8978 41.7948 10.8978C42.2254 10.8978 42.5124 11.1849 42.5124 11.6154V12.6201C42.5124 12.9072 42.656 13.1225 42.943 13.266L43.5171 13.6248L44.6654 14.2707C45.0242 14.486 45.1677 14.9166 44.9524 15.2754C44.9524 15.419 44.7371 15.5625 44.4501 15.5625ZM36.556 15.4907C36.2689 15.4907 36.0536 15.3472 35.9101 15.1319C35.6948 14.7731 35.8383 14.3425 36.1972 14.1272L38.063 13.1225C38.4219 12.9072 38.4936 12.6201 38.4936 12.4766V11.4719C38.4936 11.0413 38.7807 10.7543 39.2113 10.7543C39.6418 10.7543 39.9289 11.0413 39.9289 11.4719V12.4766C39.9289 13.266 39.4983 13.9837 38.7807 14.4143L36.9148 15.419C36.7713 15.4907 36.6995 15.4907 36.556 15.4907ZM9.50082 47.9282C8.56788 47.9282 7.70671 47.7847 6.77378 47.4259C4.9079 46.7082 3.47262 45.3447 2.68321 43.5506C0.960863 39.8188 2.61144 35.3694 6.34319 33.6471C10.0749 31.9965 14.4526 33.6471 16.1749 37.3788C17.0361 39.173 17.1078 41.1824 16.3902 43.12C15.6726 44.9859 14.309 46.4929 12.5149 47.3541C11.582 47.7129 10.5773 47.9282 9.50082 47.9282ZM9.42906 34.4365C8.63965 34.4365 7.77848 34.58 6.98907 34.9389C3.97497 36.3741 2.61144 39.9624 4.04673 42.9765C4.69261 44.4118 5.84084 45.56 7.34789 46.1341C8.85494 46.7082 10.5055 46.7082 12.0126 45.9906C13.4479 45.3447 14.5961 44.1247 15.1702 42.6176C15.7443 41.1106 15.6726 39.46 14.9549 38.0247C13.8784 35.7283 11.7255 34.4365 9.42906 34.4365Z" fill="#D2D3D5"/>
<path d="M9.57323 43.7659C7.63559 43.7659 6.12854 41.5412 6.12854 39.6753C6.12854 37.8094 7.70736 36.2306 9.57323 36.2306C10.4344 36.1588 11.2956 36.5177 11.9415 37.1635C12.6591 37.8094 13.0179 38.7424 13.0179 39.6753C13.0179 41.5412 11.5109 43.7659 9.57323 43.7659ZM9.71676 37.6659H9.64499C8.49676 37.6659 7.63559 38.5988 7.63559 39.6753C7.63559 40.8235 8.64029 42.3306 9.64499 42.3306C10.6497 42.3306 11.6544 40.8235 11.6544 39.6753C11.6544 39.1012 11.4391 38.5988 11.0085 38.1683C10.5779 37.8094 10.1473 37.6659 9.71676 37.6659Z" fill="#D2D3D5"/>
<path d="M13.4475 46.6364C13.304 46.6364 13.2322 46.6364 13.0887 46.5647L11.8687 45.9188L11.2228 45.56C10.5052 45.2012 10.0746 44.4118 10.0746 43.6941V42.6176C10.0746 42.1871 10.3617 41.9 10.7923 41.9C11.2228 41.9 11.5099 42.1871 11.5099 42.6176V43.6223C11.5099 43.9094 11.6534 44.1247 11.9405 44.2682L12.5146 44.627L13.6628 45.2729C14.0217 45.4882 14.1652 45.9188 13.9499 46.2776C13.9499 46.4929 13.7346 46.6364 13.4475 46.6364ZM5.55346 46.4929C5.2664 46.4929 5.05111 46.3494 4.90758 46.1341C4.69229 45.7753 4.83582 45.3447 5.19464 45.1294L7.06051 44.1247C7.41933 43.9094 7.4911 43.6223 7.4911 43.4788V42.4741C7.4911 42.0435 7.77816 41.7565 8.20874 41.7565C8.63933 41.7565 8.92639 42.0435 8.92639 42.4741V43.4788C8.92639 44.2682 8.4958 44.9859 7.77816 45.4165L5.91228 46.4212C5.76875 46.4929 5.69699 46.4929 5.55346 46.4929Z" fill="#D2D3D5"/>
<path d="M9.50082 47.9283C8.56788 47.9283 7.70671 47.7848 6.77378 47.4259C4.9079 46.7083 3.47262 45.3448 2.68321 43.5507C0.960863 39.8189 2.61144 35.3695 6.34319 33.6472C10.0749 31.9966 14.4526 33.6472 16.1749 37.3789C17.0361 39.173 17.1078 41.1824 16.3902 43.1201C15.6726 44.9859 14.309 46.493 12.5149 47.3542C11.582 47.713 10.5773 47.9283 9.50082 47.9283ZM9.42906 34.4366C8.63965 34.4366 7.77848 34.5801 6.98907 34.9389C3.97497 36.3742 2.61144 39.9624 4.04673 42.9765C4.69261 44.4118 5.84084 45.5601 7.34789 46.1342C8.85494 46.7083 10.5055 46.7083 12.0126 45.9906C13.4479 45.3448 14.5961 44.1248 15.1702 42.6177C15.7443 41.1107 15.6726 39.4601 14.9549 38.0248C13.8784 35.7283 11.7255 34.4366 9.42906 34.4366Z" fill="#D2D3D5"/>
<path d="M9.57323 43.7659C7.63559 43.7659 6.12854 41.5412 6.12854 39.6753C6.12854 37.8094 7.70736 36.2306 9.57323 36.2306C10.4344 36.1588 11.2956 36.5177 11.9415 37.1635C12.6591 37.8094 13.0179 38.7424 13.0179 39.6753C13.0179 41.5412 11.5109 43.7659 9.57323 43.7659ZM9.71676 37.6659H9.64499C8.49676 37.6659 7.63559 38.5988 7.63559 39.6753C7.63559 40.8235 8.64029 42.3306 9.64499 42.3306C10.6497 42.3306 11.6544 40.8235 11.6544 39.6753C11.6544 39.1012 11.4391 38.5988 11.0085 38.1683C10.5779 37.8094 10.1473 37.6659 9.71676 37.6659Z" fill="#D2D3D5"/>
<path d="M13.4475 46.6365C13.304 46.6365 13.2322 46.6365 13.0887 46.5647L11.8687 45.9188L11.2228 45.56C10.5052 45.2012 10.0746 44.4118 10.0746 43.6941V42.6177C10.0746 42.1871 10.3617 41.9 10.7923 41.9C11.2228 41.9 11.5099 42.1871 11.5099 42.6177V43.6224C11.5099 43.9094 11.6534 44.1247 11.9405 44.2682L12.5146 44.6271L13.6628 45.2729C14.0217 45.4882 14.1652 45.9188 13.9499 46.2776C13.9499 46.4929 13.7346 46.6365 13.4475 46.6365ZM5.55346 46.4929C5.2664 46.4929 5.05111 46.3494 4.90758 46.1341C4.69229 45.7753 4.83582 45.3447 5.19464 45.1294L7.06051 44.1247C7.41933 43.9094 7.4911 43.6224 7.4911 43.4788V42.4741C7.4911 42.0435 7.77816 41.7565 8.20874 41.7565C8.63933 41.7565 8.92639 42.0435 8.92639 42.4741V43.4788C8.92639 44.2682 8.4958 44.9859 7.77816 45.4165L5.91228 46.4212C5.76875 46.4929 5.69699 46.4929 5.55346 46.4929ZM40.5027 48C39.6415 48 38.7804 47.8565 37.9192 47.4976C36.0533 46.78 34.5463 45.4165 33.6851 43.6224C31.9627 39.8906 33.6133 35.4412 37.3451 33.7189C39.2109 32.8577 41.2921 32.7859 43.158 33.5036C45.0239 34.2212 46.4591 35.5847 47.2486 37.3789C48.9709 41.1106 47.3203 45.56 43.5886 47.2823C42.5839 47.7847 41.5792 48 40.5027 48ZM40.5027 34.4365C39.6415 34.4365 38.7804 34.6518 37.9192 35.0106C34.9051 36.4459 33.5416 40.0341 34.9768 43.0482C35.6945 44.4835 36.8427 45.6318 38.4215 46.2059C39.9286 46.78 41.5792 46.7082 43.0145 45.9906C46.0286 44.5553 47.3921 40.9671 45.9568 37.953C45.3109 36.5177 44.1627 35.3695 42.6556 34.8671C41.938 34.58 41.2203 34.4365 40.5027 34.4365Z" fill="#D2D3D5"/>
<path d="M40.5752 43.7659C38.6376 43.7659 37.1305 41.5412 37.1305 39.6753C37.1305 37.8094 38.7093 36.2306 40.5752 36.2306C41.4364 36.1588 42.2976 36.5177 42.9434 37.1635C43.6611 37.8094 44.0199 38.7424 44.0199 39.6753C44.0199 41.5412 42.5129 43.7659 40.5752 43.7659ZM40.7187 37.6659H40.647C39.4987 37.6659 38.6376 38.5988 38.6376 39.6753C38.6376 40.8235 39.6423 42.3306 40.647 42.3306C41.6517 42.3306 42.6564 40.8235 42.6564 39.6753C42.6564 39.1012 42.4411 38.5988 42.0105 38.1683C41.5799 37.8094 41.1493 37.6659 40.7187 37.6659Z" fill="#D2D3D5"/>
<path d="M44.4502 46.6365C44.3067 46.6365 44.2349 46.6364 44.0914 46.5647L42.8714 45.9188L42.2255 45.56C41.5079 45.2012 41.0773 44.4118 41.0773 43.6941V42.6176C41.0773 42.1871 41.3644 41.9 41.795 41.9C42.2255 41.9 42.5126 42.1871 42.5126 42.6176V43.6223C42.5126 43.9094 42.6561 44.1247 42.9432 44.2682L43.5173 44.627L44.6655 45.2729C45.0244 45.4882 45.1679 45.9188 44.9526 46.2776C44.9526 46.4929 44.7373 46.6365 44.4502 46.6365ZM36.5562 46.4929C36.2691 46.4929 36.0538 46.3494 35.9103 46.1341C35.695 45.7753 35.8385 45.3447 36.1973 45.1294L38.0632 44.1247C38.422 43.9094 38.4938 43.6223 38.4938 43.4788V42.4741C38.4938 42.0435 38.7809 41.7565 39.2114 41.7565C39.642 41.7565 39.9291 42.0435 39.9291 42.4741V43.4788C39.9291 44.2682 39.4985 44.9859 38.7809 45.4165L36.915 46.4212C36.7715 46.4929 36.6997 46.4929 36.5562 46.4929ZM25.0021 44.9141C21.7009 44.9141 18.6151 44.1247 15.7445 42.6176C15.3857 42.4024 15.2422 41.9718 15.4574 41.6129C15.6727 41.2541 16.1033 41.1106 16.4621 41.3259C19.1174 42.7612 21.988 43.4788 25.0021 43.4788C26.1503 43.4788 27.3703 43.3353 28.6621 43.12C29.0209 43.0482 29.4515 43.3353 29.5233 43.6941C29.595 44.0529 29.308 44.4835 28.9491 44.5553C27.5139 44.7706 26.2221 44.9141 25.0021 44.9141ZM32.4656 43.4071C32.1785 43.4071 31.8915 43.1918 31.8197 42.9047C31.6762 42.5459 31.8915 42.1153 32.2503 41.9718C32.6091 41.8282 33.0397 41.6129 33.4703 41.4694L34.1162 42.7612C33.6856 42.9765 33.1832 43.1918 32.7527 43.3353C32.6091 43.4071 32.5374 43.4071 32.4656 43.4071Z" fill="#D2D3D5"/>
<path d="M28.8769 44.5553C28.5899 44.5553 28.3028 44.34 28.2311 44.0529C28.0875 43.6941 28.3028 43.2635 28.6616 43.12C28.8769 43.0482 29.164 42.9764 29.3793 42.9047C29.5946 42.8329 29.8099 42.8329 30.0252 42.7612C30.384 42.6176 30.8146 42.8329 30.9581 43.1917C31.1016 43.5506 30.8863 43.9811 30.5275 44.1247C30.3122 44.1964 30.0252 44.2682 29.8099 44.34C29.5946 44.4117 29.3793 44.4117 29.164 44.4835C29.0205 44.5553 28.9487 44.5553 28.8769 44.5553ZM42.0098 34.58C41.8663 34.58 41.7945 34.58 41.651 34.5083C41.2922 34.293 41.1486 33.8624 41.3639 33.5036C42.7275 30.9918 43.4451 28.1212 43.5169 25.1789C43.5886 24.1024 43.5169 22.9542 43.2298 21.5189C43.158 21.1601 43.4451 20.7295 43.8039 20.6577C44.1627 20.586 44.5933 20.873 44.6651 21.2318C44.9521 22.7389 45.0239 24.0307 44.9521 25.1789C44.8804 28.2648 44.091 31.3506 42.6557 34.0777C42.5122 34.4365 42.2969 34.58 42.0098 34.58ZM42.871 18.5048C42.5839 18.5048 42.2969 18.2895 42.2251 18.0025C42.0816 17.6436 41.8663 17.213 41.7228 16.7825C41.5792 16.4236 41.7228 15.993 42.0098 15.8495C42.3686 15.706 42.7992 15.8495 42.9427 16.1366C43.158 16.5672 43.3733 17.0695 43.5886 17.5001C43.7322 17.8589 43.5169 18.2895 43.158 18.433C43.0145 18.5048 42.9427 18.5048 42.871 18.5048Z" fill="#D2D3D5"/>
<path d="M43.9484 22.2366C43.5896 22.2366 43.3025 21.9496 43.2308 21.6625C43.159 21.1602 43.0872 20.7296 42.9437 20.3708C42.8002 20.0119 43.0155 19.5813 43.3743 19.4378C43.7331 19.2943 44.1637 19.5096 44.3072 19.8684C44.4507 20.3708 44.5225 20.8731 44.5943 21.4472C44.666 21.806 44.379 22.2366 44.0202 22.2366H43.9484ZM33.9014 8.67317C33.7579 8.67317 33.6861 8.67317 33.5426 8.6014C30.8873 7.16611 28.0167 6.44847 25.0026 6.44847C23.8544 6.44847 22.6344 6.592 21.3426 6.80729C20.9838 6.87906 20.5532 6.592 20.4814 6.23318C20.4097 5.87436 20.6967 5.44377 21.0556 5.37201C22.4191 5.15671 23.7826 5.01318 25.0026 5.01318C28.3038 5.01318 31.3896 5.80259 34.2602 7.30964C34.619 7.52494 34.7626 7.95552 34.5473 8.31434C34.4037 8.52964 34.1884 8.67317 33.9014 8.67317ZM16.2474 8.52964C15.9603 8.52964 15.745 8.38611 15.6015 8.09905C15.4579 7.74023 15.6015 7.30964 15.8885 7.16611C16.3191 6.95082 16.8215 6.73553 17.2521 6.52024C17.6109 6.37671 18.0415 6.592 18.185 6.95082C18.3285 7.30964 18.1132 7.74023 17.7544 7.88376C17.3956 8.02729 16.965 8.24258 16.5344 8.38611C16.4626 8.52964 16.3909 8.52964 16.2474 8.52964Z" fill="#D2D3D5"/>
<path d="M19.8347 7.16611C19.5476 7.16611 19.2606 6.95081 19.1888 6.66376C19.0453 6.30493 19.2605 5.87435 19.6194 5.80258C19.8347 5.73082 20.1217 5.65905 20.337 5.58729C20.5523 5.51553 20.7676 5.51553 20.9829 5.44376C21.3417 5.30023 21.7723 5.51553 21.9158 5.87435C22.0594 6.23317 21.8441 6.66376 21.4852 6.80728C21.27 6.87905 20.9829 6.95081 20.7676 7.02258C20.5523 7.09434 20.337 7.09434 20.1217 7.16611H19.8347ZM6.12767 29.5566C5.76885 29.5566 5.48179 29.3413 5.41003 28.9825C5.12297 27.906 5.05121 26.6142 5.05121 25.0354C5.05121 21.806 5.76885 18.7202 7.2759 15.7778C7.4912 15.419 7.92178 15.2755 8.20884 15.4908C8.56766 15.7061 8.71119 16.1366 8.4959 16.4237C7.13237 19.079 6.41473 22.0213 6.41473 24.9637C6.41473 26.4707 6.4865 27.6189 6.77355 28.6236C6.84532 28.9825 6.63002 29.4131 6.2712 29.4848C6.2712 29.5566 6.19944 29.5566 6.12767 29.5566ZM7.85002 34.5083C7.56296 34.5083 7.34767 34.3648 7.20414 34.0777C6.98885 33.6472 6.77355 33.1448 6.55826 32.7142C6.41473 32.3554 6.63002 31.9248 6.98885 31.7813C7.34767 31.6377 7.77825 31.853 7.92178 32.2119C8.06531 32.5707 8.2806 33.0013 8.42413 33.4319C8.56766 33.7907 8.42413 34.2213 8.13708 34.3648C8.06531 34.5083 7.99355 34.5083 7.85002 34.5083Z" fill="#D2D3D5"/>
<path d="M6.48681 30.9201C6.19975 30.9201 5.9127 30.7048 5.84093 30.4178C5.6974 30.0589 5.55388 29.4848 5.48211 28.9107C5.33858 28.5519 5.62564 28.1931 5.98446 28.1213C6.34328 28.0495 6.77387 28.3366 6.84563 28.6954C6.9174 29.0542 6.98916 29.4848 7.20446 29.9154C7.34798 30.2742 7.13269 30.7048 6.77387 30.8483C6.63034 30.9201 6.55858 30.9201 6.48681 30.9201Z" fill="#D2D3D5"/>
</g>
<defs>
<clipPath id="clip0_1445_3550">
<rect width="48" height="48" fill="white"/>
</clipPath>
</defs>
</svg>
